<?xml version="1.0" encoding="ISO-8859-1"?>
<!-- Converted from Font Awesome. Glyph: f8ff -->
<!DOCTYPE svg PUBLIC "-//W3C//DTD SVG 1.1//EN" "http://www.w3.org/Graphics/SVG/1.1/DTD/svg11.dtd">
<svg version="1.1" xmlns="http://www.w3.org/2000/svg" xmlns:xlink="http://www.w3.org/1999/xlink" width="1600" height="1600" xml:space="preserve">
<g transform="translate(200, 1400) scale(1, -1)">
	<path id="apple" d="M1000 1200q0 -124 -88 -212t-212 -88q0 124 88 212t212 88zM450 1000h100q21 0 40 -14t26 -33l79 -194q5 1 16 3q34 6 54 9.5t60 7t65.5 1t61 -10t56.5 -23t42.5 -42t29 -64t5 -92t-19.5 -121.5q-1 -7 -3 -19.5t-11 -50t-20.5 -73t-32.5 -81.5t-46.5 -83t-64 -70 t-82.5 -50q-13 -5 -42 -5t-65.5 2.5t-47.5 2.5q-14 0 -49.5 -3.5t-63 -3.5t-43.5 7q-57 25 -104.5 78.5t-75 111.5t-46.5 112t-26 90l-7 35q-15 63 -18 115t4.5 88.5t26 64t39.5 43.5t52 25.5t58.5 13t62.5 2t59.5 -4.5t55.5 -8l-147 192q-12 18 -5.5 30t27.5 12z" />
</g>
</svg>	
