<?xml version="1.0" encoding="ISO-8859-1"?>
<!-- Converted from Font Awesome. Glyph: 2a -->
<!DOCTYPE svg PUBLIC "-//W3C//DTD SVG 1.1//EN" "http://www.w3.org/Graphics/SVG/1.1/DTD/svg11.dtd">
<svg version="1.1" xmlns="http://www.w3.org/2000/svg" xmlns:xlink="http://www.w3.org/1999/xlink" width="1600" height="1600" xml:space="preserve">
<g transform="translate(200, 1400) scale(1, -1)">
	<path id="asterisk" d="M600 1100q15 0 34 -1.5t30 -3.5l11 -1q10 -2 17.5 -10.5t7.5 -18.5v-224l158 158q7 7 18 8t19 -6l106 -106q7 -8 6 -19t-8 -18l-158 -158h224q10 0 18.5 -7.5t10.5 -17.5q6 -41 6 -75q0 -15 -1.5 -34t-3.5 -30l-1 -11q-2 -10 -10.5 -17.5t-18.5 -7.5h-224l158 -158 q7 -7 8 -18t-6 -19l-106 -106q-8 -7 -19 -6t-18 8l-158 158v-224q0 -10 -7.5 -18.5t-17.5 -10.5q-41 -6 -75 -6q-15 0 -34 1.5t-30 3.5l-11 1q-10 2 -17.5 10.5t-7.5 18.5v224l-158 -158q-7 -7 -18 -8t-19 6l-106 106q-7 8 -6 19t8 18l158 158h-224q-10 0 -18.5 7.5 t-10.5 17.5q-6 41 -6 75q0 15 1.5 34t3.5 30l1 11q2 10 10.5 17.5t18.5 7.5h224l-158 158q-7 7 -8 18t6 19l106 106q8 7 19 6t18 -8l158 -158v224q0 10 7.5 18.5t17.5 10.5q41 6 75 6z" />
</g>
</svg>	
