<?xml version="1.0" encoding="ISO-8859-1"?>
<!-- Converted from Font Awesome. Glyph: e209 -->
<!DOCTYPE svg PUBLIC "-//W3C//DTD SVG 1.1//EN" "http://www.w3.org/Graphics/SVG/1.1/DTD/svg11.dtd">
<svg version="1.1" xmlns="http://www.w3.org/2000/svg" xmlns:xlink="http://www.w3.org/1999/xlink" width="1600" height="1600" xml:space="preserve">
<g transform="translate(200, 1400) scale(1, -1)">
	<path id="alert" d="M658 1197l637 -1104q23 -38 7 -65.5t-60 -27.5h-1276q-44 0 -60 27.5t7 65.5l637 1104q22 39 54 39t54 -39zM704 800h-208q-20 0 -32 -14.5t-8 -34.5l58 -302q4 -20 21.5 -34.5t37.5 -14.5h54q20 0 37.5 14.5t21.5 34.5l58 302q4 20 -8 34.5t-32 14.5zM500 300v-100h200 v100h-200z" />
</g>
</svg>	
