<?xml version="1.0" encoding="ISO-8859-1"?>
<!-- Converted from Font Awesome. Glyph: e139 -->
<!DOCTYPE svg PUBLIC "-//W3C//DTD SVG 1.1//EN" "http://www.w3.org/Graphics/SVG/1.1/DTD/svg11.dtd">
<svg version="1.1" xmlns="http://www.w3.org/2000/svg" xmlns:xlink="http://www.w3.org/1999/xlink" width="1600" height="1600" xml:space="preserve">
<g transform="translate(200, 1400) scale(1, -1)">
	<path id="briefcase" d="M500 1200h200q41 0 70.5 -29.5t29.5 -70.5v-100h300q41 0 70.5 -29.5t29.5 -70.5v-400h-500v100h-200v-100h-500v400q0 41 29.5 70.5t70.5 29.5h300v100q0 41 29.5 70.5t70.5 29.5zM500 1100v-100h200v100h-200zM1200 400v-200q0 -41 -29.5 -70.5t-70.5 -29.5h-1000 q-41 0 -70.5 29.5t-29.5 70.5v200h1200z" />
</g>
</svg>	
