<?xml version="1.0" encoding="ISO-8859-1"?>
<!-- Converted from Font Awesome. Glyph: e090 -->
<!DOCTYPE svg PUBLIC "-//W3C//DTD SVG 1.1//EN" "http://www.w3.org/Graphics/SVG/1.1/DTD/svg11.dtd">
<svg version="1.1" xmlns="http://www.w3.org/2000/svg" xmlns:xlink="http://www.w3.org/1999/xlink" width="1600" height="1600" xml:space="preserve">
<g transform="translate(200, 1400) scale(1, -1)">
	<path id="ban-circle" d="M600 1177q117 0 224 -45.5t184.5 -123t123 -184.5t45.5 -224t-45.5 -224t-123 -184.5t-184.5 -123t-224 -45.5t-224 45.5t-184.5 123t-123 184.5t-45.5 224t45.5 224t123 184.5t184.5 123t224 45.5zM600 1027q-116 0 -214.5 -57t-155.5 -155.5t-57 -214.5q0 -120 65 -225 l587 587q-105 65 -225 65zM965 819l-584 -584q104 -62 219 -62q116 0 214.5 57t155.5 155.5t57 214.5q0 115 -62 219z" />
</g>
</svg>	
