<?xml version="1.0" encoding="ISO-8859-1"?>
<!-- Converted from Font Awesome. Glyph: e048 -->
<!DOCTYPE svg PUBLIC "-//W3C//DTD SVG 1.1//EN" "http://www.w3.org/Graphics/SVG/1.1/DTD/svg11.dtd">
<svg version="1.1" xmlns="http://www.w3.org/2000/svg" xmlns:xlink="http://www.w3.org/1999/xlink" width="1600" height="1600" xml:space="preserve">
<g transform="translate(200, 1400) scale(1, -1)">
	<path id="bold" d="M753 641q5 -1 14.5 -4.5t36 -15.5t50.5 -26.5t53.5 -40t50.5 -54.5t35.5 -70t14.5 -87q0 -67 -27.5 -125.5t-71.5 -97.5t-98.5 -66.5t-108.5 -40.5t-102 -13h-500v89q41 7 70.5 32.5t29.5 65.5v827q0 24 -0.5 34t-3.5 24t-8.5 19.5t-17 13.5t-28 12.5t-42.5 11.5v71 l471 -1q57 0 115.5 -20.5t108 -57t80.5 -94t31 -124.5q0 -51 -15.5 -96.5t-38 -74.5t-45 -50.5t-38.5 -30.5zM400 700h139q78 0 130.5 48.5t52.5 122.5q0 41 -8.5 70.5t-29.5 55.5t-62.5 39.5t-103.5 13.5h-118v-350zM400 200h216q80 0 121 50.5t41 130.5q0 90 -62.5 154.5 t-156.5 64.5h-159v-400z" />
</g>
</svg>	
