<?xml version="1.0" encoding="ISO-8859-1"?>
<!-- Converted from Font Awesome. Glyph: e227 -->
<!DOCTYPE svg PUBLIC "-//W3C//DTD SVG 1.1//EN" "http://www.w3.org/Graphics/SVG/1.1/DTD/svg11.dtd">
<svg version="1.1" xmlns="http://www.w3.org/2000/svg" xmlns:xlink="http://www.w3.org/1999/xlink" width="1600" height="1600" xml:space="preserve">
<g transform="translate(200, 1400) scale(1, -1)">
	<path id="bitcoin" d="M625 1200h150q10 0 17.5 -7.5t7.5 -17.5v-109q79 -33 131 -87.5t53 -128.5q1 -46 -15 -84.5t-39 -61t-46 -38t-39 -21.5l-17 -6q6 0 15 -1.5t35 -9t50 -17.5t53 -30t50 -45t35.5 -64t14.5 -84q0 -59 -11.5 -105.5t-28.5 -76.5t-44 -51t-49.5 -31.5t-54.5 -16t-49.5 -6.5 t-43.5 -1v-75q0 -10 -7.5 -17.5t-17.5 -7.5h-150q-10 0 -17.5 7.5t-7.5 17.5v75h-100v-75q0 -10 -7.5 -17.5t-17.5 -7.5h-150q-10 0 -17.5 7.5t-7.5 17.5v75h-175q-10 0 -17.5 7.5t-7.5 17.5v150q0 10 7.5 17.5t17.5 7.5h75v600h-75q-10 0 -17.5 7.5t-7.5 17.5v150 q0 10 7.5 17.5t17.5 7.5h175v75q0 10 7.5 17.5t17.5 7.5h150q10 0 17.5 -7.5t7.5 -17.5v-75h100v75q0 10 7.5 17.5t17.5 7.5zM400 900v-200h263q28 0 48.5 10.5t30 25t15 29t5.5 25.5l1 10q0 4 -0.5 11t-6 24t-15 30t-30 24t-48.5 11h-263zM400 500v-200h363q28 0 48.5 10.5 t30 25t15 29t5.5 25.5l1 10q0 4 -0.5 11t-6 24t-15 30t-30 24t-48.5 11h-363z" />
</g>
</svg>	
