<?xml version="1.0" encoding="ISO-8859-1"?>
<!-- Converted from Font Awesome. Glyph: e219 -->
<!DOCTYPE svg PUBLIC "-//W3C//DTD SVG 1.1//EN" "http://www.w3.org/Graphics/SVG/1.1/DTD/svg11.dtd">
<svg version="1.1" xmlns="http://www.w3.org/2000/svg" xmlns:xlink="http://www.w3.org/1999/xlink" width="1600" height="1600" xml:space="preserve">
<g transform="translate(200, 1400) scale(1, -1)">
	<path id="bed" d="M200 1100h800q83 0 141.5 -58.5t58.5 -141.5v-200h-100q0 41 -29.5 70.5t-70.5 29.5h-250q-41 0 -70.5 -29.5t-29.5 -70.5h-100q0 41 -29.5 70.5t-70.5 29.5h-250q-41 0 -70.5 -29.5t-29.5 -70.5h-100v200q0 83 58.5 141.5t141.5 58.5zM100 600h1000q41 0 70.5 -29.5 t29.5 -70.5v-300h-1200v300q0 41 29.5 70.5t70.5 29.5zM300 100v-50q0 -21 -14.5 -35.5t-35.5 -14.5h-100q-21 0 -35.5 14.5t-14.5 35.5v50h200zM1100 100v-50q0 -21 -14.5 -35.5t-35.5 -14.5h-100q-21 0 -35.5 14.5t-14.5 35.5v50h200z" />
</g>
</svg>	
