<?xml version="1.0" encoding="ISO-8859-1"?>
<!-- Converted from Font Awesome. Glyph: e214 -->
<!DOCTYPE svg PUBLIC "-//W3C//DTD SVG 1.1//EN" "http://www.w3.org/Graphics/SVG/1.1/DTD/svg11.dtd">
<svg version="1.1" xmlns="http://www.w3.org/2000/svg" xmlns:xlink="http://www.w3.org/1999/xlink" width="1600" height="1600" xml:space="preserve">
<g transform="translate(200, 1400) scale(1, -1)">
	<path id="bishop" d="M600 1300q47 0 92.5 -53.5t71 -123t25.5 -123.5q0 -78 -55.5 -133.5t-133.5 -55.5t-133.5 55.5t-55.5 133.5q0 62 34 143l144 -143l111 111l-163 163q34 26 63 26zM602 798h46q34 0 55.5 -28.5t21.5 -86.5q0 -76 39 -183h-324q39 107 39 183q0 58 21.5 86.5t56.5 28.5h45 zM250 400h700q21 0 35.5 -14.5t14.5 -35.5t-14.5 -35.5t-35.5 -14.5h-13l138 -100h-950l137 100h-12q-21 0 -35.5 14.5t-14.5 35.5t14.5 35.5t35.5 14.5zM50 100h1100q21 0 35.5 -14.5t14.5 -35.5v-50h-1200v50q0 21 14.5 35.5t35.5 14.5z" />
</g>
</svg>	
