<?xml version="1.0" encoding="ISO-8859-1"?>
<!-- Converted from Font Awesome. Glyph: e123 -->
<!DOCTYPE svg PUBLIC "-//W3C//DTD SVG 1.1//EN" "http://www.w3.org/Graphics/SVG/1.1/DTD/svg11.dtd">
<svg version="1.1" xmlns="http://www.w3.org/2000/svg" xmlns:xlink="http://www.w3.org/1999/xlink" width="1600" height="1600" xml:space="preserve">
<g transform="translate(200, 1400) scale(1, -1)">
	<path id="bell" d="M553 1200h94q20 0 29 -10.5t3 -29.5l-18 -37q83 -19 144 -82.5t76 -140.5l63 -327l118 -173h17q19 0 33 -14.5t14 -35t-13 -40.5t-31 -27q-8 -4 -23 -9.5t-65 -19.5t-103 -25t-132.5 -20t-158.5 -9q-57 0 -115 5t-104 12t-88.5 15.5t-73.5 17.5t-54.5 16t-35.5 12l-11 4 q-18 8 -31 28t-13 40.5t14 35t33 14.5h17l118 173l63 327q15 77 76 140t144 83l-18 32q-6 19 3.5 32t28.5 13zM498 110q50 -6 102 -6q53 0 102 6q-12 -49 -39.5 -79.5t-62.5 -30.5t-63 30.5t-39 79.5z" />
</g>
</svg>	
