<?xml version="1.0" encoding="ISO-8859-1"?>
<!-- Converted from Font Awesome. Glyph: e216 -->
<!DOCTYPE svg PUBLIC "-//W3C//DTD SVG 1.1//EN" "http://www.w3.org/Graphics/SVG/1.1/DTD/svg11.dtd">
<svg version="1.1" xmlns="http://www.w3.org/2000/svg" xmlns:xlink="http://www.w3.org/1999/xlink" width="1600" height="1600" xml:space="preserve">
<g transform="translate(200, 1400) scale(1, -1)">
	<path id="baby-formula" d="M600 1300q41 0 70.5 -29.5t29.5 -70.5v-78q46 -26 73 -72t27 -100v-50h-400v50q0 54 27 100t73 72v78q0 41 29.5 70.5t70.5 29.5zM400 800h400q54 0 100 -27t72 -73h-172v-100h200v-100h-200v-100h200v-100h-200v-100h200q0 -83 -58.5 -141.5t-141.5 -58.5h-400 q-83 0 -141.5 58.5t-58.5 141.5v400q0 83 58.5 141.5t141.5 58.5z" />
</g>
</svg>	
