<?xml version="1.0" encoding="ISO-8859-1"?>
<!-- Converted from Font Awesome. Glyph: e197 -->
<!DOCTYPE svg PUBLIC "-//W3C//DTD SVG 1.1//EN" "http://www.w3.org/Graphics/SVG/1.1/DTD/svg11.dtd">
<svg version="1.1" xmlns="http://www.w3.org/2000/svg" xmlns:xlink="http://www.w3.org/1999/xlink" width="1600" height="1600" xml:space="preserve">
<g transform="translate(200, 1400) scale(1, -1)">
	<path id="cloud-download" d="M503 1089q110 0 200.5 -59.5t134.5 -156.5q44 14 90 14q120 0 205 -86.5t85 -207t-85 -207t-205 -86.5h-128v250q0 21 -14.5 35.5t-35.5 14.5h-300q-21 0 -35.5 -14.5t-14.5 -35.5v-250h-222q-80 0 -136 57.5t-56 136.5q0 69 43 122.5t108 67.5q-2 19 -2 37q0 100 49 185 t134 134t185 49zM525 500h150q10 0 17.5 -7.5t7.5 -17.5v-275h137q21 0 26 -11.5t-8 -27.5l-223 -244q-13 -16 -32 -16t-32 16l-223 244q-13 16 -8 27.5t26 11.5h137v275q0 10 7.5 17.5t17.5 7.5z" />
</g>
</svg>	
