<?xml version="1.0" encoding="ISO-8859-1"?>
<!-- Converted from Font Awesome. Glyph: e046 -->
<!DOCTYPE svg PUBLIC "-//W3C//DTD SVG 1.1//EN" "http://www.w3.org/Graphics/SVG/1.1/DTD/svg11.dtd">
<svg version="1.1" xmlns="http://www.w3.org/2000/svg" xmlns:xlink="http://www.w3.org/1999/xlink" width="1600" height="1600" xml:space="preserve">
<g transform="translate(200, 1400) scale(1, -1)">
	<path id="camera" d="M500 1100h200q56 0 102.5 -20.5t72.5 -50t44 -59t25 -50.5l6 -20h150q41 0 70.5 -29.5t29.5 -70.5v-600q0 -41 -29.5 -70.5t-70.5 -29.5h-1000q-41 0 -70.5 29.5t-29.5 70.5v600q0 41 29.5 70.5t70.5 29.5h150q2 8 6.5 21.5t24 48t45 61t72 48t102.5 21.5zM900 800v-100 h100v100h-100zM600 730q-95 0 -162.5 -67.5t-67.5 -162.5t67.5 -162.5t162.5 -67.5t162.5 67.5t67.5 162.5t-67.5 162.5t-162.5 67.5zM600 603q43 0 73 -30t30 -73t-30 -73t-73 -30t-73 30t-30 73t30 73t73 30z" />
</g>
</svg>	
