<?xml version="1.0" encoding="ISO-8859-1"?>
<!-- Converted from Font Awesome. Glyph: e132 -->
<!DOCTYPE svg PUBLIC "-//W3C//DTD SVG 1.1//EN" "http://www.w3.org/Graphics/SVG/1.1/DTD/svg11.dtd">
<svg version="1.1" xmlns="http://www.w3.org/2000/svg" xmlns:xlink="http://www.w3.org/1999/xlink" width="1600" height="1600" xml:space="preserve">
<g transform="translate(200, 1400) scale(1, -1)">
	<path id="circle-arrow-left" d="M600 1178q118 0 225 -45.5t184.5 -123t123 -184.5t45.5 -225t-45.5 -225t-123 -184.5t-184.5 -123t-225 -45.5t-225 45.5t-184.5 123t-123 184.5t-45.5 225t45.5 225t123 184.5t184.5 123t225 45.5zM561 855l-275 -223q-16 -13 -16 -32t16 -32l275 -223q16 -13 27.5 -8 t11.5 26v137h275q10 0 17.5 7.5t7.5 17.5v150q0 10 -7.5 17.5t-17.5 7.5h-275v137q0 21 -11.5 26t-27.5 -8z" />
</g>
</svg>	
