<?xml version="1.0" encoding="ISO-8859-1"?>
<!-- Converted from Font Awesome. Glyph: e198 -->
<!DOCTYPE svg PUBLIC "-//W3C//DTD SVG 1.1//EN" "http://www.w3.org/Graphics/SVG/1.1/DTD/svg11.dtd">
<svg version="1.1" xmlns="http://www.w3.org/2000/svg" xmlns:xlink="http://www.w3.org/1999/xlink" width="1600" height="1600" xml:space="preserve">
<g transform="translate(200, 1400) scale(1, -1)">
	<path id="cloud-upload" d="M502 1089q110 0 201 -59.5t135 -156.5q43 15 89 15q121 0 206 -86.5t86 -206.5q0 -99 -60 -181t-150 -110l-378 360q-13 16 -31.5 16t-31.5 -16l-381 -365h-9q-79 0 -135.5 57.5t-56.5 136.5q0 69 43 122.5t108 67.5q-2 19 -2 38q0 100 49 184.5t133.5 134t184.5 49.5z M632 467l223 -228q13 -16 8 -27.5t-26 -11.5h-137v-275q0 -10 -7.5 -17.5t-17.5 -7.5h-150q-10 0 -17.5 7.5t-7.5 17.5v275h-137q-21 0 -26 11.5t8 27.5q199 204 223 228q19 19 31.5 19t32.5 -19z" />
</g>
</svg>	
