<?xml version="1.0" encoding="ISO-8859-1"?>
<!-- Converted from Font Awesome. Glyph: e201 -->
<!DOCTYPE svg PUBLIC "-//W3C//DTD SVG 1.1//EN" "http://www.w3.org/Graphics/SVG/1.1/DTD/svg11.dtd">
<svg version="1.1" xmlns="http://www.w3.org/2000/svg" xmlns:xlink="http://www.w3.org/1999/xlink" width="1600" height="1600" xml:space="preserve">
<g transform="translate(200, 1400) scale(1, -1)">
	<path id="cd" d="M1010 1010q111 -111 150.5 -260.5t0 -299t-150.5 -260.5q-83 -83 -191.5 -126.5t-218.5 -43.5t-218.5 43.5t-191.5 126.5q-111 111 -150.5 260.5t0 299t150.5 260.5q83 83 191.5 126.5t218.5 43.5t218.5 -43.5t191.5 -126.5zM476 1065q-4 0 -8 -1q-121 -34 -209.5 -122.5 t-122.5 -209.5q-4 -12 2.5 -23t18.5 -14l36 -9q3 -1 7 -1q23 0 29 22q27 96 98 166q70 71 166 98q11 3 17.5 13.5t3.5 22.5l-9 35q-3 13 -14 19q-7 4 -15 4zM512 920q-4 0 -9 -2q-80 -24 -138.5 -82.5t-82.5 -138.5q-4 -13 2 -24t19 -14l34 -9q4 -1 8 -1q22 0 28 21 q18 58 58.5 98.5t97.5 58.5q12 3 18 13.5t3 21.5l-9 35q-3 12 -14 19q-7 4 -15 4zM719.5 719.5q-49.5 49.5 -119.5 49.5t-119.5 -49.5t-49.5 -119.5t49.5 -119.5t119.5 -49.5t119.5 49.5t49.5 119.5t-49.5 119.5zM855 551q-22 0 -28 -21q-18 -58 -58.5 -98.5t-98.5 -57.5 q-11 -4 -17 -14.5t-3 -21.5l9 -35q3 -12 14 -19q7 -4 15 -4q4 0 9 2q80 24 138.5 82.5t82.5 138.5q4 13 -2.5 24t-18.5 14l-34 9q-4 1 -8 1zM1000 515q-23 0 -29 -22q-27 -96 -98 -166q-70 -71 -166 -98q-11 -3 -17.5 -13.5t-3.5 -22.5l9 -35q3 -13 14 -19q7 -4 15 -4 q4 0 8 1q121 34 209.5 122.5t122.5 209.5q4 12 -2.5 23t-18.5 14l-36 9q-3 1 -7 1z" />
</g>
</svg>	
