<?xml version="1.0" encoding="ISO-8859-1"?>
<!-- Converted from Font Awesome. Glyph: e067 -->
<!DOCTYPE svg PUBLIC "-//W3C//DTD SVG 1.1//EN" "http://www.w3.org/Graphics/SVG/1.1/DTD/svg11.dtd">
<svg version="1.1" xmlns="http://www.w3.org/2000/svg" xmlns:xlink="http://www.w3.org/1999/xlink" width="1600" height="1600" xml:space="preserve">
<g transform="translate(200, 1400) scale(1, -1)">
	<path id="check" d="M350 1100h350q60 0 127 -23l-178 -177h-349q-41 0 -70.5 -29.5t-29.5 -70.5v-500q0 -41 29.5 -70.5t70.5 -29.5h500q41 0 70.5 29.5t29.5 70.5v69l200 200v-219q0 -165 -92.5 -257.5t-257.5 -92.5h-400q-165 0 -257.5 92.5t-92.5 257.5v400q0 165 92.5 257.5t257.5 92.5z M643 639l395 395q7 7 17.5 7t17.5 -7l101 -101q7 -7 7 -17.5t-7 -17.5l-531 -532q-7 -7 -17.5 -7t-17.5 7l-248 248q-7 7 -7 17.5t7 17.5l101 101q7 7 17.5 7t17.5 -7l111 -111q8 -7 18 -7t18 7z" />
</g>
</svg>	
