<?xml version="1.0" encoding="ISO-8859-1"?>
<!-- Converted from Font Awesome. Glyph: e109 -->
<!DOCTYPE svg PUBLIC "-//W3C//DTD SVG 1.1//EN" "http://www.w3.org/Graphics/SVG/1.1/DTD/svg11.dtd">
<svg version="1.1" xmlns="http://www.w3.org/2000/svg" xmlns:xlink="http://www.w3.org/1999/xlink" width="1600" height="1600" xml:space="preserve">
<g transform="translate(200, 1400) scale(1, -1)">
	<path id="calendar" d="M850 1200h100q21 0 35.5 -14.5t14.5 -35.5v-50h50q21 0 35.5 -14.5t14.5 -35.5v-150h-1100v150q0 21 14.5 35.5t35.5 14.5h50v50q0 21 14.5 35.5t35.5 14.5h100q21 0 35.5 -14.5t14.5 -35.5v-50h500v50q0 21 14.5 35.5t35.5 14.5zM1100 800v-750q0 -21 -14.5 -35.5 t-35.5 -14.5h-1000q-21 0 -35.5 14.5t-14.5 35.5v750h1100zM100 600v-100h100v100h-100zM300 600v-100h100v100h-100zM500 600v-100h100v100h-100zM700 600v-100h100v100h-100zM900 600v-100h100v100h-100zM100 400v-100h100v100h-100zM300 400v-100h100v100h-100zM500 400 v-100h100v100h-100zM700 400v-100h100v100h-100zM900 400v-100h100v100h-100zM100 200v-100h100v100h-100zM300 200v-100h100v100h-100zM500 200v-100h100v100h-100zM700 200v-100h100v100h-100zM900 200v-100h100v100h-100z" />
</g>
</svg>	
