<?xml version="1.0" encoding="ISO-8859-1"?>
<!-- Converted from Font Awesome. Glyph: e179 -->
<!DOCTYPE svg PUBLIC "-//W3C//DTD SVG 1.1//EN" "http://www.w3.org/Graphics/SVG/1.1/DTD/svg11.dtd">
<svg version="1.1" xmlns="http://www.w3.org/2000/svg" xmlns:xlink="http://www.w3.org/1999/xlink" width="1600" height="1600" xml:space="preserve">
<g transform="translate(200, 1400) scale(1, -1)">
	<path id="cutlery" d="M862 1073l276 116q25 18 43.5 8t18.5 -41v-1106q0 -21 -14.5 -35.5t-35.5 -14.5h-200q-21 0 -35.5 14.5t-14.5 35.5v397q-4 1 -11 5t-24 17.5t-30 29t-24 42t-11 56.5v359q0 31 18.5 65t43.5 52zM550 1200q22 0 34.5 -12.5t14.5 -24.5l1 -13v-450q0 -28 -10.5 -59.5 t-25 -56t-29 -45t-25.5 -31.5l-10 -11v-447q0 -21 -14.5 -35.5t-35.5 -14.5h-200q-21 0 -35.5 14.5t-14.5 35.5v447q-4 4 -11 11.5t-24 30.5t-30 46t-24 55t-11 60v450q0 2 0.5 5.5t4 12t8.5 15t14.5 12t22.5 5.5q20 0 32.5 -12.5t14.5 -24.5l3 -13v-350h100v350v5.5t2.5 12 t7 15t15 12t25.5 5.5q23 0 35.5 -12.5t13.5 -24.5l1 -13v-350h100v350q0 2 0.5 5.5t3 12t7 15t15 12t24.5 5.5z" />
</g>
</svg>	
