<?xml version="1.0" encoding="ISO-8859-1"?>
<!-- Converted from Font Awesome. Glyph: e134 -->
<!DOCTYPE svg PUBLIC "-//W3C//DTD SVG 1.1//EN" "http://www.w3.org/Graphics/SVG/1.1/DTD/svg11.dtd">
<svg version="1.1" xmlns="http://www.w3.org/2000/svg" xmlns:xlink="http://www.w3.org/1999/xlink" width="1600" height="1600" xml:space="preserve">
<g transform="translate(200, 1400) scale(1, -1)">
	<path id="circle-arrow-down" d="M600 1178q118 0 225 -45.5t184.5 -123t123 -184.5t45.5 -225t-45.5 -225t-123 -184.5t-184.5 -123t-225 -45.5t-225 45.5t-184.5 123t-123 184.5t-45.5 225t45.5 225t123 184.5t184.5 123t225 45.5zM675 900h-150q-10 0 -17.5 -7.5t-7.5 -17.5v-275h-137q-21 0 -26 -11.5 t8 -27.5l223 -275q13 -16 32 -16t32 16l223 275q13 16 8 27.5t-26 11.5h-137v275q0 10 -7.5 17.5t-17.5 7.5z" />
</g>
</svg>	
