<?xml version="1.0" encoding="ISO-8859-1"?>
<!-- Converted from Font Awesome. Glyph: e224 -->
<!DOCTYPE svg PUBLIC "-//W3C//DTD SVG 1.1//EN" "http://www.w3.org/Graphics/SVG/1.1/DTD/svg11.dtd">
<svg version="1.1" xmlns="http://www.w3.org/2000/svg" xmlns:xlink="http://www.w3.org/1999/xlink" width="1600" height="1600" xml:space="preserve">
<g transform="translate(200, 1400) scale(1, -1)">
	<path id="duplicate" d="M900 800h300v-575q0 -10 -7.5 -17.5t-17.5 -7.5h-375v591l-300 300v84q0 10 7.5 17.5t17.5 7.5h375v-400zM1200 900h-200v200zM400 600h300v-575q0 -10 -7.5 -17.5t-17.5 -7.5h-650q-10 0 -17.5 7.5t-7.5 17.5v950q0 10 7.5 17.5t17.5 7.5h375v-400zM700 700h-200v200z " />
</g>
</svg>	
