<?xml version="1.0" encoding="ISO-8859-1"?>
<!-- Converted from Font Awesome. Glyph: e141 -->
<!DOCTYPE svg PUBLIC "-//W3C//DTD SVG 1.1//EN" "http://www.w3.org/Graphics/SVG/1.1/DTD/svg11.dtd">
<svg version="1.1" xmlns="http://www.w3.org/2000/svg" xmlns:xlink="http://www.w3.org/1999/xlink" width="1600" height="1600" xml:space="preserve">
<g transform="translate(200, 1400) scale(1, -1)">
	<path id="dashboard" d="M596 1192q121 0 231.5 -47.5t190 -127t127 -190t47.5 -231.5t-47.5 -231.5t-127 -190.5t-190 -127t-231.5 -47t-231.5 47t-190.5 127t-127 190.5t-47 231.5t47 231.5t127 190t190.5 127t231.5 47.5zM596 1010q-112 0 -207.5 -55.5t-151 -151t-55.5 -207.5t55.5 -207.5 t151 -151t207.5 -55.5t207.5 55.5t151 151t55.5 207.5t-55.5 207.5t-151 151t-207.5 55.5zM454.5 905q22.5 0 38.5 -16t16 -38.5t-16 -39t-38.5 -16.5t-38.5 16.5t-16 39t16 38.5t38.5 16zM754.5 905q22.5 0 38.5 -16t16 -38.5t-16 -39t-38 -16.5q-14 0 -29 10l-55 -145 q17 -23 17 -51q0 -36 -25.5 -61.5t-61.5 -25.5t-61.5 25.5t-25.5 61.5q0 32 20.5 56.5t51.5 29.5l122 126l1 1q-9 14 -9 28q0 23 16 39t38.5 16zM345.5 709q22.5 0 38.5 -16t16 -38.5t-16 -38.5t-38.5 -16t-38.5 16t-16 38.5t16 38.5t38.5 16zM854.5 709q22.5 0 38.5 -16 t16 -38.5t-16 -38.5t-38.5 -16t-38.5 16t-16 38.5t16 38.5t38.5 16z" />
</g>
</svg>	
