<?xml version="1.0" encoding="ISO-8859-1"?>
<!-- Converted from Font Awesome. Glyph: e025 -->
<!DOCTYPE svg PUBLIC "-//W3C//DTD SVG 1.1//EN" "http://www.w3.org/Graphics/SVG/1.1/DTD/svg11.dtd">
<svg version="1.1" xmlns="http://www.w3.org/2000/svg" xmlns:xlink="http://www.w3.org/1999/xlink" width="1600" height="1600" xml:space="preserve">
<g transform="translate(200, 1400) scale(1, -1)">
	<path id="download-alt" d="M550 1200h200q21 0 35.5 -14.5t14.5 -35.5v-450h191q20 0 25.5 -11.5t-7.5 -27.5l-327 -400q-13 -16 -32 -16t-32 16l-327 400q-13 16 -7.5 27.5t25.5 11.5h191v450q0 21 14.5 35.5t35.5 14.5zM1125 400h50q10 0 17.5 -7.5t7.5 -17.5v-350q0 -10 -7.5 -17.5t-17.5 -7.5 h-1050q-10 0 -17.5 7.5t-7.5 17.5v350q0 10 7.5 17.5t17.5 7.5h50q10 0 17.5 -7.5t7.5 -17.5v-175h900v175q0 10 7.5 17.5t17.5 7.5z" />
</g>
</svg>	
