<?xml version="1.0" encoding="ISO-8859-1"?>
<!-- Converted from Font Awesome. Glyph: e026 -->
<!DOCTYPE svg PUBLIC "-//W3C//DTD SVG 1.1//EN" "http://www.w3.org/Graphics/SVG/1.1/DTD/svg11.dtd">
<svg version="1.1" xmlns="http://www.w3.org/2000/svg" xmlns:xlink="http://www.w3.org/1999/xlink" width="1600" height="1600" xml:space="preserve">
<g transform="translate(200, 1400) scale(1, -1)">
	<path id="download" d="M600 1177q117 0 224 -45.5t184.5 -123t123 -184.5t45.5 -224t-45.5 -224t-123 -184.5t-184.5 -123t-224 -45.5t-224 45.5t-184.5 123t-123 184.5t-45.5 224t45.5 224t123 184.5t184.5 123t224 45.5zM600 1027q-116 0 -214.5 -57t-155.5 -155.5t-57 -214.5t57 -214.5 t155.5 -155.5t214.5 -57t214.5 57t155.5 155.5t57 214.5t-57 214.5t-155.5 155.5t-214.5 57zM525 900h150q10 0 17.5 -7.5t7.5 -17.5v-275h137q21 0 26 -11.5t-8 -27.5l-223 -275q-13 -16 -32 -16t-32 16l-223 275q-13 16 -8 27.5t26 11.5h137v275q0 10 7.5 17.5t17.5 7.5z " />
</g>
</svg>	
