<?xml version="1.0" encoding="ISO-8859-1"?>
<!-- Converted from Font Awesome. Glyph: 2709 -->
<!DOCTYPE svg PUBLIC "-//W3C//DTD SVG 1.1//EN" "http://www.w3.org/Graphics/SVG/1.1/DTD/svg11.dtd">
<svg version="1.1" xmlns="http://www.w3.org/2000/svg" xmlns:xlink="http://www.w3.org/1999/xlink" width="1600" height="1600" xml:space="preserve">
<g transform="translate(200, 1400) scale(1, -1)">
	<path id="envelope" d="M25 1100h1150q10 0 12.5 -5t-5.5 -13l-564 -567q-8 -8 -18 -8t-18 8l-564 567q-8 8 -5.5 13t12.5 5zM18 882l264 -264q8 -8 8 -18t-8 -18l-264 -264q-8 -8 -13 -5.5t-5 12.5v550q0 10 5 12.5t13 -5.5zM918 618l264 264q8 8 13 5.5t5 -12.5v-550q0 -10 -5 -12.5t-13 5.5 l-264 264q-8 8 -8 18t8 18zM818 482l364 -364q8 -8 5.5 -13t-12.5 -5h-1150q-10 0 -12.5 5t5.5 13l364 364q8 8 18 8t18 -8l164 -164q8 -8 18 -8t18 8l164 164q8 8 18 8t18 -8z" />
</g>
</svg>	
