<?xml version="1.0" encoding="ISO-8859-1"?>
<!-- Converted from Font Awesome. Glyph: 20ac -->
<!DOCTYPE svg PUBLIC "-//W3C//DTD SVG 1.1//EN" "http://www.w3.org/Graphics/SVG/1.1/DTD/svg11.dtd">
<svg version="1.1" xmlns="http://www.w3.org/2000/svg" xmlns:xlink="http://www.w3.org/1999/xlink" width="1600" height="1600" xml:space="preserve">
<g transform="translate(200, 1400) scale(1, -1)">
	<path id="euro" d="M744 1198q242 0 354 -189q60 -104 66 -209h-181q0 45 -17.5 82.5t-43.5 61.5t-58 40.5t-60.5 24t-51.5 7.5q-19 0 -40.5 -5.5t-49.5 -20.5t-53 -38t-49 -62.5t-39 -89.5h379l-100 -100h-300q-6 -50 -6 -100h406l-100 -100h-300q9 -74 33 -132t52.5 -91t61.5 -54.5t59 -29 t47 -7.5q22 0 50.5 7.5t60.5 24.5t58 41t43.5 61t17.5 80h174q-30 -171 -128 -278q-107 -117 -274 -117q-206 0 -324 158q-36 48 -69 133t-45 204h-217l100 100h112q1 47 6 100h-218l100 100h134q20 87 51 153.5t62 103.5q117 141 297 141z" />
</g>
</svg>	
