<?xml version="1.0" encoding="ISO-8859-1"?>
<!-- Converted from Font Awesome. Glyph: e065 -->
<!DOCTYPE svg PUBLIC "-//W3C//DTD SVG 1.1//EN" "http://www.w3.org/Graphics/SVG/1.1/DTD/svg11.dtd">
<svg version="1.1" xmlns="http://www.w3.org/2000/svg" xmlns:xlink="http://www.w3.org/1999/xlink" width="1600" height="1600" xml:space="preserve">
<g transform="translate(200, 1400) scale(1, -1)">
	<path id="edit" d="M1000 1013l108 115q2 1 5 2t13 2t20.5 -1t25 -9.5t28.5 -21.5q22 -22 27 -43t0 -32l-6 -10l-108 -115zM350 1100h400q50 0 105 -13l-187 -187h-368q-41 0 -70.5 -29.5t-29.5 -70.5v-500q0 -41 29.5 -70.5t70.5 -29.5h500q41 0 70.5 29.5t29.5 70.5v182l200 200v-332 q0 -165 -93.5 -257.5t-256.5 -92.5h-400q-165 0 -257.5 92.5t-92.5 257.5v400q0 165 92.5 257.5t257.5 92.5zM1009 803l-362 -362l-161 -50l55 170l355 355z" />
</g>
</svg>	
