<?xml version="1.0" encoding="ISO-8859-1"?>
<!-- Converted from Font Awesome. Glyph: e101 -->
<!DOCTYPE svg PUBLIC "-//W3C//DTD SVG 1.1//EN" "http://www.w3.org/Graphics/SVG/1.1/DTD/svg11.dtd">
<svg version="1.1" xmlns="http://www.w3.org/2000/svg" xmlns:xlink="http://www.w3.org/1999/xlink" width="1600" height="1600" xml:space="preserve">
<g transform="translate(200, 1400) scale(1, -1)">
	<path id="exclamation-sign" d="M600 1177q117 0 224 -45.5t184.5 -123t123 -184.5t45.5 -224t-45.5 -224t-123 -184.5t-184.5 -123t-224 -45.5t-224 45.5t-184.5 123t-123 184.5t-45.5 224t45.5 224t123 184.5t184.5 123t224 45.5zM704 900h-208q-20 0 -32 -14.5t-8 -34.5l58 -302q4 -20 21.5 -34.5 t37.5 -14.5h54q20 0 37.5 14.5t21.5 34.5l58 302q4 20 -8 34.5t-32 14.5zM675 400h-150q-10 0 -17.5 -7.5t-7.5 -17.5v-150q0 -10 7.5 -17.5t17.5 -7.5h150q10 0 17.5 7.5t7.5 17.5v150q0 10 -7.5 17.5t-17.5 7.5z" />
</g>
</svg>	
