<?xml version="1.0" encoding="ISO-8859-1"?>
<!-- Converted from Font Awesome. Glyph: e105 -->
<!DOCTYPE svg PUBLIC "-//W3C//DTD SVG 1.1//EN" "http://www.w3.org/Graphics/SVG/1.1/DTD/svg11.dtd">
<svg version="1.1" xmlns="http://www.w3.org/2000/svg" xmlns:xlink="http://www.w3.org/1999/xlink" width="1600" height="1600" xml:space="preserve">
<g transform="translate(200, 1400) scale(1, -1)">
	<path id="eye-open" d="M600 1094q82 0 160.5 -22.5t140 -59t116.5 -82.5t94.5 -95t68 -95t42.5 -82.5t14 -57.5t-14 -57.5t-43 -82.5t-68.5 -95t-94.5 -95t-116.5 -82.5t-140 -59t-159.5 -22.5t-159.5 22.5t-140 59t-116.5 82.5t-94.5 95t-68.5 95t-43 82.5t-14 57.5t14 57.5t42.5 82.5t68 95 t94.5 95t116.5 82.5t140 59t160.5 22.5zM888 829q-15 15 -18 12t5 -22q25 -57 25 -119q0 -124 -88 -212t-212 -88t-212 88t-88 212q0 59 23 114q8 19 4.5 22t-17.5 -12q-70 -69 -160 -184q-13 -16 -15 -40.5t9 -42.5q22 -36 47 -71t70 -82t92.5 -81t113 -58.5t133.5 -24.5 t133.5 24t113 58.5t92.5 81.5t70 81.5t47 70.5q11 18 9 42.5t-14 41.5q-90 117 -163 189zM448 727l-35 -36q-15 -15 -19.5 -38.5t4.5 -41.5q37 -68 93 -116q16 -13 38.5 -11t36.5 17l35 34q14 15 12.5 33.5t-16.5 33.5q-44 44 -89 117q-11 18 -28 20t-32 -12z" />
</g>
</svg>	
