<?xml version="1.0" encoding="ISO-8859-1"?>
<!-- Converted from Font Awesome. Glyph: e106 -->
<!DOCTYPE svg PUBLIC "-//W3C//DTD SVG 1.1//EN" "http://www.w3.org/Graphics/SVG/1.1/DTD/svg11.dtd">
<svg version="1.1" xmlns="http://www.w3.org/2000/svg" xmlns:xlink="http://www.w3.org/1999/xlink" width="1600" height="1600" xml:space="preserve">
<g transform="translate(200, 1400) scale(1, -1)">
	<path id="eye-close" d="M592 0h-148l31 120q-91 20 -175.5 68.5t-143.5 106.5t-103.5 119t-66.5 110t-22 76q0 21 14 57.5t42.5 82.5t68 95t94.5 95t116.5 82.5t140 59t160.5 22.5q61 0 126 -15l32 121h148zM944 770l47 181q108 -85 176.5 -192t68.5 -159q0 -26 -19.5 -71t-59.5 -102t-93 -112 t-129 -104.5t-158 -75.5l46 173q77 49 136 117t97 131q11 18 9 42.5t-14 41.5q-54 70 -107 130zM310 824q-70 -69 -160 -184q-13 -16 -15 -40.5t9 -42.5q18 -30 39 -60t57 -70.5t74 -73t90 -61t105 -41.5l41 154q-107 18 -178.5 101.5t-71.5 193.5q0 59 23 114q8 19 4.5 22 t-17.5 -12zM448 727l-35 -36q-15 -15 -19.5 -38.5t4.5 -41.5q37 -68 93 -116q16 -13 38.5 -11t36.5 17l12 11l22 86l-3 4q-44 44 -89 117q-11 18 -28 20t-32 -12z" />
</g>
</svg>	
