<?xml version="1.0" encoding="ISO-8859-1"?>
<!-- Converted from Font Awesome. Glyph: e158 -->
<!DOCTYPE svg PUBLIC "-//W3C//DTD SVG 1.1//EN" "http://www.w3.org/Graphics/SVG/1.1/DTD/svg11.dtd">
<svg version="1.1" xmlns="http://www.w3.org/2000/svg" xmlns:xlink="http://www.w3.org/1999/xlink" width="1600" height="1600" xml:space="preserve">
<g transform="translate(200, 1400) scale(1, -1)">
	<path id="expand" d="M350 1100h400q165 0 257.5 -92.5t92.5 -257.5v-400q0 -165 -92.5 -257.5t-257.5 -92.5h-400q-163 0 -256.5 92.5t-93.5 257.5v400q0 163 94 256.5t256 93.5zM800 900h-500q-41 0 -70.5 -29.5t-29.5 -70.5v-500q0 -41 29.5 -70.5t70.5 -29.5h500q41 0 70.5 29.5t29.5 70.5 v500q0 41 -29.5 70.5t-70.5 29.5zM440 770l253 -190q17 -12 17 -30t-17 -30l-253 -190q-16 -12 -28 -6.5t-12 26.5v400q0 21 12 26.5t28 -6.5z" />
</g>
</svg>	
