<?xml version="1.0" encoding="ISO-8859-1"?>
<!-- Converted from Font Awesome. Glyph: e221 -->
<!DOCTYPE svg PUBLIC "-//W3C//DTD SVG 1.1//EN" "http://www.w3.org/Graphics/SVG/1.1/DTD/svg11.dtd">
<svg version="1.1" xmlns="http://www.w3.org/2000/svg" xmlns:xlink="http://www.w3.org/1999/xlink" width="1600" height="1600" xml:space="preserve">
<g transform="translate(200, 1400) scale(1, -1)">
	<path id="erase" d="M480 1165l682 -683q31 -31 31 -75.5t-31 -75.5l-131 -131h-481l-517 518q-32 31 -32 75.5t32 75.5l295 296q31 31 75.5 31t76.5 -31zM108 794l342 -342l303 304l-341 341zM250 100h800q21 0 35.5 -14.5t14.5 -35.5v-50h-900v50q0 21 14.5 35.5t35.5 14.5z" />
</g>
</svg>	
