<?xml version="1.0" encoding="ISO-8859-1"?>
<!-- Converted from Font Awesome. Glyph: e170 -->
<!DOCTYPE svg PUBLIC "-//W3C//DTD SVG 1.1//EN" "http://www.w3.org/Graphics/SVG/1.1/DTD/svg11.dtd">
<svg version="1.1" xmlns="http://www.w3.org/2000/svg" xmlns:xlink="http://www.w3.org/1999/xlink" width="1600" height="1600" xml:space="preserve">
<g transform="translate(200, 1400) scale(1, -1)">
	<path id="export" d="M350 1200l599 -2q20 -1 35 -15.5t15 -35.5l1 -597q0 -21 -10.5 -25t-24.5 10l-208 208l-155 -154l-212 212l155 154l-210 210q-14 14 -10 24.5t25 10.5zM524 512l-76 -77q-15 -14 -36 -14t-35 14l-142 142q-14 14 -14 35t14 35l77 77zM50 300h1000q21 0 35.5 -14.5 t14.5 -35.5v-250h-1100v250q0 21 14.5 35.5t35.5 14.5zM900 200v-50h100v50h-100z" />
</g>
</svg>	
