<?xml version="1.0" encoding="ISO-8859-1"?>
<!-- Converted from Font Awesome. Glyph: e140 -->
<!DOCTYPE svg PUBLIC "-//W3C//DTD SVG 1.1//EN" "http://www.w3.org/Graphics/SVG/1.1/DTD/svg11.dtd">
<svg version="1.1" xmlns="http://www.w3.org/2000/svg" xmlns:xlink="http://www.w3.org/1999/xlink" width="1600" height="1600" xml:space="preserve">
<g transform="translate(200, 1400) scale(1, -1)">
	<path id="fullscreen" d="M50 1200h300q21 0 25 -10.5t-10 -24.5l-94 -94l199 -199q7 -8 7 -18t-7 -18l-106 -106q-8 -7 -18 -7t-18 7l-199 199l-94 -94q-14 -14 -24.5 -10t-10.5 25v300q0 21 14.5 35.5t35.5 14.5zM850 1200h300q21 0 35.5 -14.5t14.5 -35.5v-300q0 -21 -10.5 -25t-24.5 10l-94 94 l-199 -199q-8 -7 -18 -7t-18 7l-106 106q-7 8 -7 18t7 18l199 199l-94 94q-14 14 -10 24.5t25 10.5zM364 470l106 -106q7 -8 7 -18t-7 -18l-199 -199l94 -94q14 -14 10 -24.5t-25 -10.5h-300q-21 0 -35.5 14.5t-14.5 35.5v300q0 21 10.5 25t24.5 -10l94 -94l199 199 q8 7 18 7t18 -7zM1071 271l94 94q14 14 24.5 10t10.5 -25v-300q0 -21 -14.5 -35.5t-35.5 -14.5h-300q-21 0 -25 10.5t10 24.5l94 94l-199 199q-7 8 -7 18t7 18l106 106q8 7 18 7t18 -7z" />
</g>
</svg>	
