<?xml version="1.0" encoding="ISO-8859-1"?>
<!-- Converted from Font Awesome. Glyph: e076 -->
<!DOCTYPE svg PUBLIC "-//W3C//DTD SVG 1.1//EN" "http://www.w3.org/Graphics/SVG/1.1/DTD/svg11.dtd">
<svg version="1.1" xmlns="http://www.w3.org/2000/svg" xmlns:xlink="http://www.w3.org/1999/xlink" width="1600" height="1600" xml:space="preserve">
<g transform="translate(200, 1400) scale(1, -1)">
	<path id="fast-forward" d="M1048 1102l100 1q20 0 35 -14.5t15 -35.5l5 -1000q0 -21 -14.5 -35.5t-35.5 -14.5l-100 -1q-21 0 -35.5 14.5t-14.5 35.5l-2 437l-463 -454q-14 -15 -24.5 -10.5t-10.5 25.5l-2 437l-462 -455q-15 -14 -25.5 -9.5t-10.5 24.5l-5 1000q0 21 10.5 25.5t25.5 -10.5l466 -450 l-2 438q0 20 10.5 24.5t25.5 -9.5l466 -451l-2 438q0 21 14.5 35.5t35.5 14.5z" />
</g>
</svg>	
