<?xml version="1.0" encoding="ISO-8859-1"?>
<!-- Converted from Font Awesome. Glyph: e173 -->
<!DOCTYPE svg PUBLIC "-//W3C//DTD SVG 1.1//EN" "http://www.w3.org/Graphics/SVG/1.1/DTD/svg11.dtd">
<svg version="1.1" xmlns="http://www.w3.org/2000/svg" xmlns:xlink="http://www.w3.org/1999/xlink" width="1600" height="1600" xml:space="preserve">
<g transform="translate(200, 1400) scale(1, -1)">
	<path id="floppy-saved" d="M1100 1000l-2 -149l-299 -299l-95 95q-9 9 -21.5 9t-21.5 -9l-149 -147h-312v-400h-150q-21 0 -35.5 14.5t-14.5 35.5v1000q0 20 14.5 35t35.5 15h250v-300h500v300h100zM700 1000h-100v200h100v-200zM1132 638l106 -106q7 -7 7 -17.5t-7 -17.5l-420 -421q-8 -7 -18 -7 t-18 7l-202 203q-8 7 -8 17.5t8 17.5l106 106q7 8 17.5 8t17.5 -8l79 -79l297 297q7 7 17.5 7t17.5 -7z" />
</g>
</svg>	
