<?xml version="1.0" encoding="ISO-8859-1"?>
<!-- Converted from Font Awesome. Glyph: e176 -->
<!DOCTYPE svg PUBLIC "-//W3C//DTD SVG 1.1//EN" "http://www.w3.org/Graphics/SVG/1.1/DTD/svg11.dtd">
<svg version="1.1" xmlns="http://www.w3.org/2000/svg" xmlns:xlink="http://www.w3.org/1999/xlink" width="1600" height="1600" xml:space="preserve">
<g transform="translate(200, 1400) scale(1, -1)">
	<path id="floppy-open" d="M1100 1000v-400l-165 165q-14 15 -35 15t-35 -15l-263 -265h-402v-400h-150q-21 0 -35.5 14.5t-14.5 35.5v1000q0 20 14.5 35t35.5 15h250v-300h500v300h100zM700 1000h-100v200h100v-200zM935 565l230 -229q14 -15 10 -25.5t-25 -10.5h-150v-250q0 -20 -14.5 -35 t-35.5 -15h-100q-21 0 -35.5 15t-14.5 35v250h-150q-21 0 -25 10.5t10 25.5l230 229q14 15 35 15t35 -15z" />
</g>
</svg>	
