<?xml version="1.0" encoding="ISO-8859-1"?>
<!-- Converted from Font Awesome. Glyph: e047 -->
<!DOCTYPE svg PUBLIC "-//W3C//DTD SVG 1.1//EN" "http://www.w3.org/Graphics/SVG/1.1/DTD/svg11.dtd">
<svg version="1.1" xmlns="http://www.w3.org/2000/svg" xmlns:xlink="http://www.w3.org/1999/xlink" width="1600" height="1600" xml:space="preserve">
<g transform="translate(200, 1400) scale(1, -1)">
	<path id="font" d="M681 1199l385 -998q20 -50 60 -92q18 -19 36.5 -29.5t27.5 -11.5l10 -2v-66h-417v66q53 0 75 43.5t5 88.5l-82 222h-391q-58 -145 -92 -234q-11 -34 -6.5 -57t25.5 -37t46 -20t55 -6v-66h-365v66q56 24 84 52q12 12 25 30.5t20 31.5l7 13l399 1006h93zM416 521h340 l-162 457z" />
</g>
</svg>	
