<?xml version="1.0" encoding="ISO-8859-1"?>
<!-- Converted from Font Awesome. Glyph: e104 -->
<!DOCTYPE svg PUBLIC "-//W3C//DTD SVG 1.1//EN" "http://www.w3.org/Graphics/SVG/1.1/DTD/svg11.dtd">
<svg version="1.1" xmlns="http://www.w3.org/2000/svg" xmlns:xlink="http://www.w3.org/1999/xlink" width="1600" height="1600" xml:space="preserve">
<g transform="translate(200, 1400) scale(1, -1)">
	<path id="fire" d="M653 1231q-39 -67 -54.5 -131t-10.5 -114.5t24.5 -96.5t47.5 -80t63.5 -62.5t68.5 -46.5t65 -30q-4 7 -17.5 35t-18.5 39.5t-17 39.5t-17 43t-13 42t-9.5 44.5t-2 42t4 43t13.5 39t23 38.5q96 -42 165 -107.5t105 -138t52 -156t13 -159t-19 -149.5q-13 -55 -44 -106.5 t-68 -87t-78.5 -64.5t-72.5 -45t-53 -22q-72 -22 -127 -11q-31 6 -13 19q6 3 17 7q13 5 32.5 21t41 44t38.5 63.5t21.5 81.5t-6.5 94.5t-50 107t-104 115.5q10 -104 -0.5 -189t-37 -140.5t-65 -93t-84 -52t-93.5 -11t-95 24.5q-80 36 -131.5 114t-53.5 171q-2 23 0 49.5 t4.5 52.5t13.5 56t27.5 60t46 64.5t69.5 68.5q-8 -53 -5 -102.5t17.5 -90t34 -68.5t44.5 -39t49 -2q31 13 38.5 36t-4.5 55t-29 64.5t-36 75t-26 75.5q-15 85 2 161.5t53.5 128.5t85.5 92.5t93.5 61t81.5 25.5z" />
</g>
</svg>	
