<?xml version="1.0" encoding="ISO-8859-1"?>
<!-- Converted from Font Awesome. Glyph: e162 -->
<!DOCTYPE svg PUBLIC "-//W3C//DTD SVG 1.1//EN" "http://www.w3.org/Graphics/SVG/1.1/DTD/svg11.dtd">
<svg version="1.1" xmlns="http://www.w3.org/2000/svg" xmlns:xlink="http://www.w3.org/1999/xlink" width="1600" height="1600" xml:space="preserve">
<g transform="translate(200, 1400) scale(1, -1)">
	<path id="flash" d="M793 1182l9 -9q8 -10 5 -27q-3 -11 -79 -225.5t-78 -221.5l300 1q24 0 32.5 -17.5t-5.5 -35.5q-1 0 -133.5 -155t-267 -312.5t-138.5 -162.5q-12 -15 -26 -15h-9l-9 8q-9 11 -4 32q2 9 42 123.5t79 224.5l39 110h-302q-23 0 -31 19q-10 21 6 41q75 86 209.5 237.5 t228 257t98.5 111.5q9 16 25 16h9z" />
</g>
</svg>	
