<?xml version="1.0" encoding="ISO-8859-1"?>
<!-- Converted from Font Awesome. Glyph: e034 -->
<!DOCTYPE svg PUBLIC "-//W3C//DTD SVG 1.1//EN" "http://www.w3.org/Graphics/SVG/1.1/DTD/svg11.dtd">
<svg version="1.1" xmlns="http://www.w3.org/2000/svg" xmlns:xlink="http://www.w3.org/1999/xlink" width="1600" height="1600" xml:space="preserve">
<g transform="translate(200, 1400) scale(1, -1)">
	<path id="flag" d="M125 1100h50q10 0 17.5 -7.5t7.5 -17.5v-1075h-100v1075q0 10 7.5 17.5t17.5 7.5zM1075 1052q4 0 9 -2q16 -6 16 -23v-421q0 -6 -3 -12q-33 -59 -66.5 -99t-65.5 -58t-56.5 -24.5t-52.5 -6.5q-26 0 -57.5 6.5t-52.5 13.5t-60 21q-41 15 -63 22.5t-57.5 15t-65.5 7.5 q-85 0 -160 -57q-7 -5 -15 -5q-6 0 -11 3q-14 7 -14 22v438q22 55 82 98.5t119 46.5q23 2 43 0.5t43 -7t32.5 -8.5t38 -13t32.5 -11q41 -14 63.5 -21t57 -14t63.5 -7q103 0 183 87q7 8 18 8z" />
</g>
</svg>	
