<?xml version="1.0" encoding="ISO-8859-1"?>
<!-- Converted from Font Awesome. Glyph: e175 -->
<!DOCTYPE svg PUBLIC "-//W3C//DTD SVG 1.1//EN" "http://www.w3.org/Graphics/SVG/1.1/DTD/svg11.dtd">
<svg version="1.1" xmlns="http://www.w3.org/2000/svg" xmlns:xlink="http://www.w3.org/1999/xlink" width="1600" height="1600" xml:space="preserve">
<g transform="translate(200, 1400) scale(1, -1)">
	<path id="floppy-save" d="M1100 1000v-300h-350q-21 0 -35.5 -14.5t-14.5 -35.5v-150h-500v-400h-150q-21 0 -35.5 14.5t-14.5 35.5v1000q0 20 14.5 35t35.5 15h250v-300h500v300h100zM700 1000h-100v200h100v-200zM850 600h100q21 0 35.5 -14.5t14.5 -35.5v-250h150q21 0 25 -10.5t-10 -24.5 l-230 -230q-14 -14 -35 -14t-35 14l-230 230q-14 14 -10 24.5t25 10.5h150v250q0 21 14.5 35.5t35.5 14.5z" />
</g>
</svg>	
