<?xml version="1.0" encoding="ISO-8859-1"?>
<!-- Converted from Font Awesome. Glyph: e174 -->
<!DOCTYPE svg PUBLIC "-//W3C//DTD SVG 1.1//EN" "http://www.w3.org/Graphics/SVG/1.1/DTD/svg11.dtd">
<svg version="1.1" xmlns="http://www.w3.org/2000/svg" xmlns:xlink="http://www.w3.org/1999/xlink" width="1600" height="1600" xml:space="preserve">
<g transform="translate(200, 1400) scale(1, -1)">
	<path id="floppy-remove" d="M1100 1000v-269l-103 -103l-134 134q-15 15 -33.5 16.5t-34.5 -12.5l-266 -266h-329v-400h-150q-21 0 -35.5 14.5t-14.5 35.5v1000q0 20 14.5 35t35.5 15h250v-300h500v300h100zM700 1000h-100v200h100v-200zM1202 572l70 -70q15 -15 15 -35.5t-15 -35.5l-131 -131 l131 -131q15 -15 15 -35.5t-15 -35.5l-70 -70q-15 -15 -35.5 -15t-35.5 15l-131 131l-131 -131q-15 -15 -35.5 -15t-35.5 15l-70 70q-15 15 -15 35.5t15 35.5l131 131l-131 131q-15 15 -15 35.5t15 35.5l70 70q15 15 35.5 15t35.5 -15l131 -131l131 131q15 15 35.5 15 t35.5 -15z" />
</g>
</svg>	
