<?xml version="1.0" encoding="ISO-8859-1"?>
<!-- Converted from Font Awesome. Glyph: e009 -->
<!DOCTYPE svg PUBLIC "-//W3C//DTD SVG 1.1//EN" "http://www.w3.org/Graphics/SVG/1.1/DTD/svg11.dtd">
<svg version="1.1" xmlns="http://www.w3.org/2000/svg" xmlns:xlink="http://www.w3.org/1999/xlink" width="1600" height="1600" xml:space="preserve">
<g transform="translate(200, 1400) scale(1, -1)">
	<path id="film" d="M25 1100h1150q10 0 17.5 -7.5t7.5 -17.5v-1050q0 -10 -7.5 -17.5t-17.5 -7.5h-1150q-10 0 -17.5 7.5t-7.5 17.5v1050q0 10 7.5 17.5t17.5 7.5zM100 1000v-100h100v100h-100zM875 1000h-550q-10 0 -17.5 -7.5t-7.5 -17.5v-350q0 -10 7.5 -17.5t17.5 -7.5h550 q10 0 17.5 7.5t7.5 17.5v350q0 10 -7.5 17.5t-17.5 7.5zM1000 1000v-100h100v100h-100zM100 800v-100h100v100h-100zM1000 800v-100h100v100h-100zM100 600v-100h100v100h-100zM1000 600v-100h100v100h-100zM875 500h-550q-10 0 -17.5 -7.5t-7.5 -17.5v-350q0 -10 7.5 -17.5 t17.5 -7.5h550q10 0 17.5 7.5t7.5 17.5v350q0 10 -7.5 17.5t-17.5 7.5zM100 400v-100h100v100h-100zM1000 400v-100h100v100h-100zM100 200v-100h100v100h-100zM1000 200v-100h100v100h-100z" />
</g>
</svg>	
