<?xml version="1.0" encoding="ISO-8859-1"?>
<!-- Converted from Font Awesome. Glyph: e135 -->
<!DOCTYPE svg PUBLIC "-//W3C//DTD SVG 1.1//EN" "http://www.w3.org/Graphics/SVG/1.1/DTD/svg11.dtd">
<svg version="1.1" xmlns="http://www.w3.org/2000/svg" xmlns:xlink="http://www.w3.org/1999/xlink" width="1600" height="1600" xml:space="preserve">
<g transform="translate(200, 1400) scale(1, -1)">
	<path id="globe" d="M600 1176q116 0 222.5 -46t184 -123.5t123.5 -184t46 -222.5t-46 -222.5t-123.5 -184t-184 -123.5t-222.5 -46t-222.5 46t-184 123.5t-123.5 184t-46 222.5t46 222.5t123.5 184t184 123.5t222.5 46zM627 1101q-15 -12 -36.5 -20.5t-35.5 -12t-43 -8t-39 -6.5 q-15 -3 -45.5 0t-45.5 -2q-20 -7 -51.5 -26.5t-34.5 -34.5q-3 -11 6.5 -22.5t8.5 -18.5q-3 -34 -27.5 -91t-29.5 -79q-9 -34 5 -93t8 -87q0 -9 17 -44.5t16 -59.5q12 0 23 -5t23.5 -15t19.5 -14q16 -8 33 -15t40.5 -15t34.5 -12q21 -9 52.5 -32t60 -38t57.5 -11 q7 -15 -3 -34t-22.5 -40t-9.5 -38q13 -21 23 -34.5t27.5 -27.5t36.5 -18q0 -7 -3.5 -16t-3.5 -14t5 -17q104 -2 221 112q30 29 46.5 47t34.5 49t21 63q-13 8 -37 8.5t-36 7.5q-15 7 -49.5 15t-51.5 19q-18 0 -41 -0.5t-43 -1.5t-42 -6.5t-38 -16.5q-51 -35 -66 -12 q-4 1 -3.5 25.5t0.5 25.5q-6 13 -26.5 17.5t-24.5 6.5q1 15 -0.5 30.5t-7 28t-18.5 11.5t-31 -21q-23 -25 -42 4q-19 28 -8 58q6 16 22 22q6 -1 26 -1.5t33.5 -4t19.5 -13.5q7 -12 18 -24t21.5 -20.5t20 -15t15.5 -10.5l5 -3q2 12 7.5 30.5t8 34.5t-0.5 32q-3 18 3.5 29 t18 22.5t15.5 24.5q6 14 10.5 35t8 31t15.5 22.5t34 22.5q-6 18 10 36q8 0 24 -1.5t24.5 -1.5t20 4.5t20.5 15.5q-10 23 -31 42.5t-37.5 29.5t-49 27t-43.5 23q0 1 2 8t3 11.5t1.5 10.5t-1 9.5t-4.5 4.5q31 -13 58.5 -14.5t38.5 2.5l12 5q5 28 -9.5 46t-36.5 24t-50 15 t-41 20q-18 -4 -37 0zM613 994q0 -17 8 -42t17 -45t9 -23q-8 1 -39.5 5.5t-52.5 10t-37 16.5q3 11 16 29.5t16 25.5q10 -10 19 -10t14 6t13.5 14.5t16.5 12.5z" />
</g>
</svg>	
