<?xml version="1.0" encoding="ISO-8859-1"?>
<!-- Converted from Font Awesome. Glyph: e149 -->
<!DOCTYPE svg PUBLIC "-//W3C//DTD SVG 1.1//EN" "http://www.w3.org/Graphics/SVG/1.1/DTD/svg11.dtd">
<svg version="1.1" xmlns="http://www.w3.org/2000/svg" xmlns:xlink="http://www.w3.org/1999/xlink" width="1600" height="1600" xml:space="preserve">
<g transform="translate(200, 1400) scale(1, -1)">
	<path id="gbp" d="M561 1197q84 0 160.5 -40t123.5 -109.5t47 -147.5h-153q0 40 -19.5 71.5t-49.5 48.5t-59.5 26t-55.5 9q-37 0 -79 -14.5t-62 -35.5q-41 -44 -41 -101q0 -26 13.5 -63t26.5 -61t37 -66q6 -9 9 -14h241v-100h-197q8 -50 -2.5 -115t-31.5 -95q-45 -62 -99 -112 q34 10 83 17.5t71 7.5q32 1 102 -16t104 -17q83 0 136 30l50 -147q-31 -19 -58 -30.5t-55 -15.5t-42 -4.5t-46 -0.5q-23 0 -76 17t-111 32.5t-96 11.5q-39 -3 -82 -16t-67 -25l-23 -11l-55 145q4 3 16 11t15.5 10.5t13 9t15.5 12t14.5 14t17.5 18.5q48 55 54 126.5 t-30 142.5h-221v100h166q-23 47 -44 104q-7 20 -12 41.5t-6 55.5t6 66.5t29.5 70.5t58.5 71q97 88 263 88z" />
</g>
</svg>	
