<?xml version="1.0" encoding="ISO-8859-1"?>
<!-- Converted from Font Awesome. Glyph: e021 -->
<!DOCTYPE svg PUBLIC "-//W3C//DTD SVG 1.1//EN" "http://www.w3.org/Graphics/SVG/1.1/DTD/svg11.dtd">
<svg version="1.1" xmlns="http://www.w3.org/2000/svg" xmlns:xlink="http://www.w3.org/1999/xlink" width="1600" height="1600" xml:space="preserve">
<g transform="translate(200, 1400) scale(1, -1)">
	<path id="home" d="M18 618l620 608q8 7 18.5 7t17.5 -7l608 -608q8 -8 5.5 -13t-12.5 -5h-175v-575q0 -10 -7.5 -17.5t-17.5 -7.5h-250q-10 0 -17.5 7.5t-7.5 17.5v375h-300v-375q0 -10 -7.5 -17.5t-17.5 -7.5h-250q-10 0 -17.5 7.5t-7.5 17.5v575h-175q-10 0 -12.5 5t5.5 13z" />
</g>
</svg>	
