<?xml version="1.0" encoding="ISO-8859-1"?>
<!-- Converted from Font Awesome. Glyph: e130 -->
<!DOCTYPE svg PUBLIC "-//W3C//DTD SVG 1.1//EN" "http://www.w3.org/Graphics/SVG/1.1/DTD/svg11.dtd">
<svg version="1.1" xmlns="http://www.w3.org/2000/svg" xmlns:xlink="http://www.w3.org/1999/xlink" width="1600" height="1600" xml:space="preserve">
<g transform="translate(200, 1400) scale(1, -1)">
	<path id="hand-down" d="M350 1100h500q21 0 35.5 14.5t14.5 35.5v100q0 21 -14.5 35.5t-35.5 14.5h-500q-21 0 -35.5 -14.5t-14.5 -35.5v-100q0 -21 14.5 -35.5t35.5 -14.5zM600 306v-106q0 -84 -39 -139t-111 -55t-110 54t-38 138v302l-121 -84q-15 -12 -34 -11.5t-32 13.5l-112 110 q-22 22 -6 53l230 363q1 2 3.5 6t10.5 13.5t16.5 17t20 13.5t22.5 6h525q13 0 94 -83t81 -90v-342q0 -15 -20 -28.5t-41 -19.5zM308 900l-236 -339l83 -86l183 146q22 17 47 5q2 -1 4.5 -2.5t4 -4t2.5 -4t2 -5t1.5 -5t0.5 -6v-5.5v-6v-7v-456q0 -22 25 -31t50 0.5t25 30.5 v203q0 15 20 28.5t41 19.5l339 131v293l-89 100h-503z" />
</g>
</svg>	
