<?xml version="1.0" encoding="ISO-8859-1"?>
<!-- Converted from Font Awesome. Glyph: e121 -->
<!DOCTYPE svg PUBLIC "-//W3C//DTD SVG 1.1//EN" "http://www.w3.org/Graphics/SVG/1.1/DTD/svg11.dtd">
<svg version="1.1" xmlns="http://www.w3.org/2000/svg" xmlns:xlink="http://www.w3.org/1999/xlink" width="1600" height="1600" xml:space="preserve">
<g transform="translate(200, 1400) scale(1, -1)">
	<path id="hdd" d="M1169 400l-172 732q-5 23 -23 45.5t-38 22.5h-672q-20 0 -38 -20t-23 -41l-172 -739h1138zM1100 300h-1000q-41 0 -70.5 -29.5t-29.5 -70.5v-100q0 -41 29.5 -70.5t70.5 -29.5h1000q41 0 70.5 29.5t29.5 70.5v100q0 41 -29.5 70.5t-70.5 29.5zM800 100v100h100v-100h-100 zM1000 100v100h100v-100h-100z" />
</g>
</svg>	
