<?xml version="1.0" encoding="ISO-8859-1"?>
<!-- Converted from Font Awesome. Glyph: e129 -->
<!DOCTYPE svg PUBLIC "-//W3C//DTD SVG 1.1//EN" "http://www.w3.org/Graphics/SVG/1.1/DTD/svg11.dtd">
<svg version="1.1" xmlns="http://www.w3.org/2000/svg" xmlns:xlink="http://www.w3.org/1999/xlink" width="1600" height="1600" xml:space="preserve">
<g transform="translate(200, 1400) scale(1, -1)">
	<path id="hand-up" d="M550 1294q72 0 111 -55t39 -139v-106l339 -131q21 -6 41 -19.5t20 -28.5v-342q0 -7 -81 -90t-94 -83h-525q-17 0 -35.5 14t-28.5 28l-9 14l-230 363q-16 31 6 53l112 110q13 13 32 13.5t34 -11.5l121 -84v302q0 84 38 138t110 54zM600 972v203q0 21 -25 30.5t-50 0.5 t-25 -31v-456v-7v-6v-5.5t-0.5 -6t-1.5 -5t-2 -5t-2.5 -4t-4 -4t-4.5 -2.5q-25 -12 -47 5l-183 146l-83 -86l236 -339h503l89 100v293l-339 131q-21 6 -41 19.5t-20 28.5zM450 200h500q21 0 35.5 -14.5t14.5 -35.5v-100q0 -21 -14.5 -35.5t-35.5 -14.5h-500 q-21 0 -35.5 14.5t-14.5 35.5v100q0 21 14.5 35.5t35.5 14.5z" />
</g>
</svg>	
