<?xml version="1.0" encoding="ISO-8859-1"?>
<!-- Converted from Font Awesome. Glyph: e005 -->
<!DOCTYPE svg PUBLIC "-//W3C//DTD SVG 1.1//EN" "http://www.w3.org/Graphics/SVG/1.1/DTD/svg11.dtd">
<svg version="1.1" xmlns="http://www.w3.org/2000/svg" xmlns:xlink="http://www.w3.org/1999/xlink" width="1600" height="1600" xml:space="preserve">
<g transform="translate(200, 1400) scale(1, -1)">
	<path id="heart" d="M649 949q48 68 109.5 104t121.5 38.5t118.5 -20t102.5 -64t71 -100.5t27 -123q0 -57 -33.5 -117.5t-94 -124.5t-126.5 -127.5t-150 -152.5t-146 -174q-62 85 -145.5 174t-150 152.5t-126.5 127.5t-93.5 124.5t-33.5 117.5q0 64 28 123t73 100.5t104 64t119 20 t120.5 -38.5t104.5 -104z" />
</g>
</svg>	
