<?xml version="1.0" encoding="ISO-8859-1"?>
<!-- Converted from Font Awesome. Glyph: e127 -->
<!DOCTYPE svg PUBLIC "-//W3C//DTD SVG 1.1//EN" "http://www.w3.org/Graphics/SVG/1.1/DTD/svg11.dtd">
<svg version="1.1" xmlns="http://www.w3.org/2000/svg" xmlns:xlink="http://www.w3.org/1999/xlink" width="1600" height="1600" xml:space="preserve">
<g transform="translate(200, 1400) scale(1, -1)">
	<path id="hand-right" d="M356 873l363 230q31 16 53 -6l110 -112q13 -13 13.5 -32t-11.5 -34l-84 -121h302q84 0 138 -38t54 -110t-55 -111t-139 -39h-106l-131 -339q-6 -21 -19.5 -41t-28.5 -20h-342q-7 0 -90 81t-83 94v525q0 17 14 35.5t28 28.5zM400 792v-503l100 -89h293l131 339 q6 21 19.5 41t28.5 20h203q21 0 30.5 25t0.5 50t-31 25h-456h-7h-6h-5.5t-6 0.5t-5 1.5t-5 2t-4 2.5t-4 4t-2.5 4.5q-12 25 5 47l146 183l-86 83zM50 800h100q21 0 35.5 -14.5t14.5 -35.5v-500q0 -21 -14.5 -35.5t-35.5 -14.5h-100q-21 0 -35.5 14.5t-14.5 35.5v500 q0 21 14.5 35.5t35.5 14.5z" />
</g>
</svg>	
