<?xml version="1.0" encoding="ISO-8859-1"?>
<!-- Converted from Font Awesome. Glyph: e143 -->
<!DOCTYPE svg PUBLIC "-//W3C//DTD SVG 1.1//EN" "http://www.w3.org/Graphics/SVG/1.1/DTD/svg11.dtd">
<svg version="1.1" xmlns="http://www.w3.org/2000/svg" xmlns:xlink="http://www.w3.org/1999/xlink" width="1600" height="1600" xml:space="preserve">
<g transform="translate(200, 1400) scale(1, -1)">
	<path id="heart-empty" d="M649 949q48 68 109.5 104t121.5 38.5t118.5 -20t102.5 -64t71 -100.5t27 -123q0 -57 -33.5 -117.5t-94 -124.5t-126.5 -127.5t-150 -152.5t-146 -174q-62 85 -145.5 174t-150 152.5t-126.5 127.5t-93.5 124.5t-33.5 117.5q0 64 28 123t73 100.5t104 64t119 20 t120.5 -38.5t104.5 -104zM896 972q-33 0 -64.5 -19t-56.5 -46t-47.5 -53.5t-43.5 -45.5t-37.5 -19t-36 19t-40 45.5t-43 53.5t-54 46t-65.5 19q-67 0 -122.5 -55.5t-55.5 -132.5q0 -23 13.5 -51t46 -65t57.5 -63t76 -75l22 -22q15 -14 44 -44t50.5 -51t46 -44t41 -35t23 -12 t23.5 12t42.5 36t46 44t52.5 52t44 43q4 4 12 13q43 41 63.5 62t52 55t46 55t26 46t11.5 44q0 79 -53 133.5t-120 54.5z" />
</g>
</svg>	
