<?xml version="1.0" encoding="ISO-8859-1"?>
<!-- Converted from Font Awesome. Glyph: 231b -->
<!DOCTYPE svg PUBLIC "-//W3C//DTD SVG 1.1//EN" "http://www.w3.org/Graphics/SVG/1.1/DTD/svg11.dtd">
<svg version="1.1" xmlns="http://www.w3.org/2000/svg" xmlns:xlink="http://www.w3.org/1999/xlink" width="1600" height="1600" xml:space="preserve">
<g transform="translate(200, 1400) scale(1, -1)">
	<path id="hourglass" d="M1000 1200v-150q0 -21 -14.5 -35.5t-35.5 -14.5h-50v-100q0 -91 -49.5 -165.5t-130.5 -109.5q81 -35 130.5 -109.5t49.5 -165.5v-150h50q21 0 35.5 -14.5t14.5 -35.5v-150h-800v150q0 21 14.5 35.5t35.5 14.5h50v150q0 91 49.5 165.5t130.5 109.5q-81 35 -130.5 109.5 t-49.5 165.5v100h-50q-21 0 -35.5 14.5t-14.5 35.5v150h800zM400 1000v-100q0 -60 32.5 -109.5t87.5 -73.5q28 -12 44 -37t16 -55t-16 -55t-44 -37q-55 -24 -87.5 -73.5t-32.5 -109.5v-150h400v150q0 60 -32.5 109.5t-87.5 73.5q-28 12 -44 37t-16 55t16 55t44 37 q55 24 87.5 73.5t32.5 109.5v100h-400z" />
</g>
</svg>	
