<?xml version="1.0" encoding="ISO-8859-1"?>
<!-- Converted from Font Awesome. Glyph: e128 -->
<!DOCTYPE svg PUBLIC "-//W3C//DTD SVG 1.1//EN" "http://www.w3.org/Graphics/SVG/1.1/DTD/svg11.dtd">
<svg version="1.1" xmlns="http://www.w3.org/2000/svg" xmlns:xlink="http://www.w3.org/1999/xlink" width="1600" height="1600" xml:space="preserve">
<g transform="translate(200, 1400) scale(1, -1)">
	<path id="hand-left" d="M475 1103l366 -230q2 -1 6 -3.5t14 -10.5t18 -16.5t14.5 -20t6.5 -22.5v-525q0 -13 -86 -94t-93 -81h-342q-15 0 -28.5 20t-19.5 41l-131 339h-106q-85 0 -139.5 39t-54.5 111t54 110t138 38h302l-85 121q-11 15 -10.5 34t13.5 32l110 112q22 22 53 6zM370 945l146 -183 q17 -22 5 -47q-2 -2 -3.5 -4.5t-4 -4t-4 -2.5t-5 -2t-5 -1.5t-6 -0.5h-6h-6.5h-6h-475v-100h221q15 0 29 -20t20 -41l130 -339h294l106 89v503l-342 236zM1050 800h100q21 0 35.5 -14.5t14.5 -35.5v-500q0 -21 -14.5 -35.5t-35.5 -14.5h-100q-21 0 -35.5 14.5t-14.5 35.5 v500q0 21 14.5 35.5t35.5 14.5z" />
</g>
</svg>	
