<?xml version="1.0" encoding="ISO-8859-1"?>
<!-- Converted from Font Awesome. Glyph: e035 -->
<!DOCTYPE svg PUBLIC "-//W3C//DTD SVG 1.1//EN" "http://www.w3.org/Graphics/SVG/1.1/DTD/svg11.dtd">
<svg version="1.1" xmlns="http://www.w3.org/2000/svg" xmlns:xlink="http://www.w3.org/1999/xlink" width="1600" height="1600" xml:space="preserve">
<g transform="translate(200, 1400) scale(1, -1)">
	<path id="headphones" d="M600 1175q116 0 227 -49.5t192.5 -131t131 -192.5t49.5 -227v-300q0 -10 -7.5 -17.5t-17.5 -7.5h-50q-10 0 -17.5 7.5t-7.5 17.5v300q0 127 -70.5 231.5t-184.5 161.5t-245 57t-245 -57t-184.5 -161.5t-70.5 -231.5v-300q0 -10 -7.5 -17.5t-17.5 -7.5h-50 q-10 0 -17.5 7.5t-7.5 17.5v300q0 116 49.5 227t131 192.5t192.5 131t227 49.5zM220 500h160q8 0 14 -6t6 -14v-460q0 -8 -6 -14t-14 -6h-160q-8 0 -14 6t-6 14v460q0 8 6 14t14 6zM820 500h160q8 0 14 -6t6 -14v-460q0 -8 -6 -14t-14 -6h-160q-8 0 -14 6t-6 14v460 q0 8 6 14t14 6z" />
</g>
</svg>	
