<?xml version="1.0" encoding="ISO-8859-1"?>
<!-- Converted from Font Awesome. Glyph: e028 -->
<!DOCTYPE svg PUBLIC "-//W3C//DTD SVG 1.1//EN" "http://www.w3.org/Graphics/SVG/1.1/DTD/svg11.dtd">
<svg version="1.1" xmlns="http://www.w3.org/2000/svg" xmlns:xlink="http://www.w3.org/1999/xlink" width="1600" height="1600" xml:space="preserve">
<g transform="translate(200, 1400) scale(1, -1)">
	<path id="inbox" d="M225 1200h750q10 0 19.5 -7t12.5 -17l186 -652q7 -24 7 -49v-425q0 -12 -4 -27t-9 -17q-12 -6 -37 -6h-1100q-12 0 -27 4t-17 8q-6 13 -6 38l1 425q0 25 7 49l185 652q3 10 12.5 17t19.5 7zM878 1000h-556q-10 0 -19 -7t-11 -18l-87 -450q-2 -11 4 -18t16 -7h150 q10 0 19.5 -7t11.5 -17l38 -152q2 -10 11.5 -17t19.5 -7h250q10 0 19.5 7t11.5 17l38 152q2 10 11.5 17t19.5 7h150q10 0 16 7t4 18l-87 450q-2 11 -11 18t-19 7z" />
</g>
</svg>	
