<?xml version="1.0" encoding="ISO-8859-1"?>
<!-- Converted from Font Awesome. Glyph: e169 -->
<!DOCTYPE svg PUBLIC "-//W3C//DTD SVG 1.1//EN" "http://www.w3.org/Graphics/SVG/1.1/DTD/svg11.dtd">
<svg version="1.1" xmlns="http://www.w3.org/2000/svg" xmlns:xlink="http://www.w3.org/1999/xlink" width="1600" height="1600" xml:space="preserve">
<g transform="translate(200, 1400) scale(1, -1)">
	<path id="import" d="M135 1023l142 142q14 14 35 14t35 -14l77 -77l-212 -212l-77 76q-14 15 -14 36t14 35zM655 855l210 210q14 14 24.5 10t10.5 -25l-2 -599q-1 -20 -15.5 -35t-35.5 -15l-597 -1q-21 0 -25 10.5t10 24.5l208 208l-154 155l212 212zM50 300h1000q21 0 35.5 -14.5t14.5 -35.5 v-250h-1100v250q0 21 14.5 35.5t35.5 14.5zM900 200v-50h100v50h-100z" />
</g>
</svg>	
