<?xml version="1.0" encoding="ISO-8859-1"?>
<!-- Converted from Font Awesome. Glyph: e033 -->
<!DOCTYPE svg PUBLIC "-//W3C//DTD SVG 1.1//EN" "http://www.w3.org/Graphics/SVG/1.1/DTD/svg11.dtd">
<svg version="1.1" xmlns="http://www.w3.org/2000/svg" xmlns:xlink="http://www.w3.org/1999/xlink" width="1600" height="1600" xml:space="preserve">
<g transform="translate(200, 1400) scale(1, -1)">
	<path id="lock" d="M900 800v200q0 83 -58.5 141.5t-141.5 58.5h-300q-82 0 -141 -59t-59 -141v-200h-100q-41 0 -70.5 -29.5t-29.5 -70.5v-600q0 -41 29.5 -70.5t70.5 -29.5h900q41 0 70.5 29.5t29.5 70.5v600q0 41 -29.5 70.5t-70.5 29.5h-100zM400 800v150q0 21 15 35.5t35 14.5h200 q20 0 35 -14.5t15 -35.5v-150h-300z" />
</g>
</svg>	
