<?xml version="1.0" encoding="ISO-8859-1"?>
<!-- Converted from Font Awesome. Glyph: e161 -->
<!DOCTYPE svg PUBLIC "-//W3C//DTD SVG 1.1//EN" "http://www.w3.org/Graphics/SVG/1.1/DTD/svg11.dtd">
<svg version="1.1" xmlns="http://www.w3.org/2000/svg" xmlns:xlink="http://www.w3.org/1999/xlink" width="1600" height="1600" xml:space="preserve">
<g transform="translate(200, 1400) scale(1, -1)">
	<path id="log-in" d="M550 1100h400q165 0 257.5 -92.5t92.5 -257.5v-400q0 -165 -92.5 -257.5t-257.5 -92.5h-400q-21 0 -35.5 14.5t-14.5 35.5v100q0 21 14.5 35.5t35.5 14.5h450q41 0 70.5 29.5t29.5 70.5v500q0 41 -29.5 70.5t-70.5 29.5h-450q-21 0 -35.5 14.5t-14.5 35.5v100 q0 21 14.5 35.5t35.5 14.5zM338 867l324 -284q16 -14 16 -33t-16 -33l-324 -284q-16 -14 -27 -9t-11 26v150h-250q-21 0 -35.5 14.5t-14.5 35.5v200q0 21 14.5 35.5t35.5 14.5h250v150q0 21 11 26t27 -9z" />
</g>
</svg>	
