<?xml version="1.0" encoding="ISO-8859-1"?>
<!-- Converted from Font Awesome. Glyph: e144 -->
<!DOCTYPE svg PUBLIC "-//W3C//DTD SVG 1.1//EN" "http://www.w3.org/Graphics/SVG/1.1/DTD/svg11.dtd">
<svg version="1.1" xmlns="http://www.w3.org/2000/svg" xmlns:xlink="http://www.w3.org/1999/xlink" width="1600" height="1600" xml:space="preserve">
<g transform="translate(200, 1400) scale(1, -1)">
	<path id="link" d="M776.5 1214q93.5 0 159.5 -66l141 -141q66 -66 66 -160q0 -42 -28 -95.5t-62 -87.5l-29 -29q-31 53 -77 99l-18 18l95 95l-247 248l-389 -389l212 -212l-105 -106l-19 18l-141 141q-66 66 -66 159t66 159l283 283q65 66 158.5 66zM600 706l105 105q10 -8 19 -17l141 -141 q66 -66 66 -159t-66 -159l-283 -283q-66 -66 -159 -66t-159 66l-141 141q-66 66 -66 159.5t66 159.5l55 55q29 -55 75 -102l18 -17l-95 -95l247 -248l389 389z" />
</g>
</svg>	
