<?xml version="1.0" encoding="ISO-8859-1"?>
<!-- Converted from Font Awesome. Glyph: e032 -->
<!DOCTYPE svg PUBLIC "-//W3C//DTD SVG 1.1//EN" "http://www.w3.org/Graphics/SVG/1.1/DTD/svg11.dtd">
<svg version="1.1" xmlns="http://www.w3.org/2000/svg" xmlns:xlink="http://www.w3.org/1999/xlink" width="1600" height="1600" xml:space="preserve">
<g transform="translate(200, 1400) scale(1, -1)">
	<path id="list-alt" d="M125 1200h1050q10 0 17.5 -7.5t7.5 -17.5v-1150q0 -10 -7.5 -17.5t-17.5 -7.5h-1050q-10 0 -17.5 7.5t-7.5 17.5v1150q0 10 7.5 17.5t17.5 7.5zM1075 1000h-850q-10 0 -17.5 -7.5t-7.5 -17.5v-850q0 -10 7.5 -17.5t17.5 -7.5h850q10 0 17.5 7.5t7.5 17.5v850 q0 10 -7.5 17.5t-17.5 7.5zM325 900h50q10 0 17.5 -7.5t7.5 -17.5v-50q0 -10 -7.5 -17.5t-17.5 -7.5h-50q-10 0 -17.5 7.5t-7.5 17.5v50q0 10 7.5 17.5t17.5 7.5zM525 900h450q10 0 17.5 -7.5t7.5 -17.5v-50q0 -10 -7.5 -17.5t-17.5 -7.5h-450q-10 0 -17.5 7.5t-7.5 17.5v50 q0 10 7.5 17.5t17.5 7.5zM325 700h50q10 0 17.5 -7.5t7.5 -17.5v-50q0 -10 -7.5 -17.5t-17.5 -7.5h-50q-10 0 -17.5 7.5t-7.5 17.5v50q0 10 7.5 17.5t17.5 7.5zM525 700h450q10 0 17.5 -7.5t7.5 -17.5v-50q0 -10 -7.5 -17.5t-17.5 -7.5h-450q-10 0 -17.5 7.5t-7.5 17.5v50 q0 10 7.5 17.5t17.5 7.5zM325 500h50q10 0 17.5 -7.5t7.5 -17.5v-50q0 -10 -7.5 -17.5t-17.5 -7.5h-50q-10 0 -17.5 7.5t-7.5 17.5v50q0 10 7.5 17.5t17.5 7.5zM525 500h450q10 0 17.5 -7.5t7.5 -17.5v-50q0 -10 -7.5 -17.5t-17.5 -7.5h-450q-10 0 -17.5 7.5t-7.5 17.5v50 q0 10 7.5 17.5t17.5 7.5zM325 300h50q10 0 17.5 -7.5t7.5 -17.5v-50q0 -10 -7.5 -17.5t-17.5 -7.5h-50q-10 0 -17.5 7.5t-7.5 17.5v50q0 10 7.5 17.5t17.5 7.5zM525 300h450q10 0 17.5 -7.5t7.5 -17.5v-50q0 -10 -7.5 -17.5t-17.5 -7.5h-450q-10 0 -17.5 7.5t-7.5 17.5v50 q0 10 7.5 17.5t17.5 7.5z" />
</g>
</svg>	
