<?xml version="1.0" encoding="ISO-8859-1"?>
<!-- Converted from Font Awesome. Glyph: e103 -->
<!DOCTYPE svg PUBLIC "-//W3C//DTD SVG 1.1//EN" "http://www.w3.org/Graphics/SVG/1.1/DTD/svg11.dtd">
<svg version="1.1" xmlns="http://www.w3.org/2000/svg" xmlns:xlink="http://www.w3.org/1999/xlink" width="1600" height="1600" xml:space="preserve">
<g transform="translate(200, 1400) scale(1, -1)">
	<path id="leaf" d="M1165 1190q8 3 21 -6.5t13 -17.5q-2 -178 -24.5 -323.5t-55.5 -245.5t-87 -174.5t-102.5 -118.5t-118 -68.5t-118.5 -33t-120 -4.5t-105 9.5t-90 16.5q-61 12 -78 11q-4 1 -12.5 0t-34 -14.5t-52.5 -40.5l-153 -153q-26 -24 -37 -14.5t-11 43.5q0 64 42 102q8 8 50.5 45 t66.5 58q19 17 35 47t13 61q-9 55 -10 102.5t7 111t37 130t78 129.5q39 51 80 88t89.5 63.5t94.5 45t113.5 36t129 31t157.5 37t182 47.5zM1116 1098q-8 9 -22.5 -3t-45.5 -50q-38 -47 -119 -103.5t-142 -89.5l-62 -33q-56 -30 -102 -57t-104 -68t-102.5 -80.5t-85.5 -91 t-64 -104.5q-24 -56 -31 -86t2 -32t31.5 17.5t55.5 59.5q25 30 94 75.5t125.5 77.5t147.5 81q70 37 118.5 69t102 79.5t99 111t86.5 148.5q22 50 24 60t-6 19z" />
</g>
</svg>	
