<?xml version="1.0" encoding="ISO-8859-1"?>
<!-- Converted from Font Awesome. Glyph: e236 -->
<!DOCTYPE svg PUBLIC "-//W3C//DTD SVG 1.1//EN" "http://www.w3.org/Graphics/SVG/1.1/DTD/svg11.dtd">
<svg version="1.1" xmlns="http://www.w3.org/2000/svg" xmlns:xlink="http://www.w3.org/1999/xlink" width="1600" height="1600" xml:space="preserve">
<g transform="translate(200, 1400) scale(1, -1)">
	<path id="menu-hamburger" d="M125 1100h950q10 0 17.5 -7.5t7.5 -17.5v-150q0 -10 -7.5 -17.5t-17.5 -7.5h-950q-10 0 -17.5 7.5t-7.5 17.5v150q0 10 7.5 17.5t17.5 7.5zM125 700h950q10 0 17.5 -7.5t7.5 -17.5v-150q0 -10 -7.5 -17.5t-17.5 -7.5h-950q-10 0 -17.5 7.5t-7.5 17.5v150q0 10 7.5 17.5 t17.5 7.5zM125 300h950q10 0 17.5 -7.5t7.5 -17.5v-150q0 -10 -7.5 -17.5t-17.5 -7.5h-950q-10 0 -17.5 7.5t-7.5 17.5v150q0 10 7.5 17.5t17.5 7.5z" />
</g>
</svg>	
