<?xml version="1.0" encoding="ISO-8859-1"?>
<!-- Converted from Font Awesome. Glyph: e002 -->
<!DOCTYPE svg PUBLIC "-//W3C//DTD SVG 1.1//EN" "http://www.w3.org/Graphics/SVG/1.1/DTD/svg11.dtd">
<svg version="1.1" xmlns="http://www.w3.org/2000/svg" xmlns:xlink="http://www.w3.org/1999/xlink" width="1600" height="1600" xml:space="preserve">
<g transform="translate(200, 1400) scale(1, -1)">
	<path id="music" d="M368 1017l645 163q39 15 63 0t24 -49v-831q0 -55 -41.5 -95.5t-111.5 -63.5q-79 -25 -147 -4.5t-86 75t25.5 111.5t122.5 82q72 24 138 8v521l-600 -155v-606q0 -42 -44 -90t-109 -69q-79 -26 -147 -5.5t-86 75.5t25.5 111.5t122.5 82.5q72 24 138 7v639q0 38 14.5 59 t53.5 34z" />
</g>
</svg>	
