<?xml version="1.0" encoding="ISO-8859-1"?>
<!-- Converted from Font Awesome. Glyph: e062 -->
<!DOCTYPE svg PUBLIC "-//W3C//DTD SVG 1.1//EN" "http://www.w3.org/Graphics/SVG/1.1/DTD/svg11.dtd">
<svg version="1.1" xmlns="http://www.w3.org/2000/svg" xmlns:xlink="http://www.w3.org/1999/xlink" width="1600" height="1600" xml:space="preserve">
<g transform="translate(200, 1400) scale(1, -1)">
	<path id="map-marker" d="M648 1169q117 0 216 -60t156.5 -161t57.5 -218q0 -115 -70 -258q-69 -109 -158 -225.5t-143 -179.5l-54 -62q-9 8 -25.5 24.5t-63.5 67.5t-91 103t-98.5 128t-95.5 148q-60 132 -60 249q0 88 34 169.5t91.5 142t137 96.5t166.5 36zM652.5 974q-91.5 0 -156.5 -65 t-65 -157t65 -156.5t156.5 -64.5t156.5 64.5t65 156.5t-65 157t-156.5 65z" />
</g>
</svg>	
