<?xml version="1.0" encoding="ISO-8859-1"?>
<!-- Converted from Font Awesome. Glyph: e068 -->
<!DOCTYPE svg PUBLIC "-//W3C//DTD SVG 1.1//EN" "http://www.w3.org/Graphics/SVG/1.1/DTD/svg11.dtd">
<svg version="1.1" xmlns="http://www.w3.org/2000/svg" xmlns:xlink="http://www.w3.org/1999/xlink" width="1600" height="1600" xml:space="preserve">
<g transform="translate(200, 1400) scale(1, -1)">
	<path id="move" d="M318 918l264 264q8 8 18 8t18 -8l260 -264q7 -8 4.5 -13t-12.5 -5h-170v-200h200v173q0 10 5 12t13 -5l264 -260q8 -7 8 -17.5t-8 -17.5l-264 -265q-8 -7 -13 -5t-5 12v173h-200v-200h170q10 0 12.5 -5t-4.5 -13l-260 -264q-8 -8 -18 -8t-18 8l-264 264q-8 8 -5.5 13 t12.5 5h175v200h-200v-173q0 -10 -5 -12t-13 5l-264 265q-8 7 -8 17.5t8 17.5l264 260q8 7 13 5t5 -12v-173h200v200h-175q-10 0 -12.5 5t5.5 13z" />
</g>
</svg>	
