<?xml version="1.0" encoding="ISO-8859-1"?>
<!-- Converted from Font Awesome. Glyph: e164 -->
<!DOCTYPE svg PUBLIC "-//W3C//DTD SVG 1.1//EN" "http://www.w3.org/Graphics/SVG/1.1/DTD/svg11.dtd">
<svg version="1.1" xmlns="http://www.w3.org/2000/svg" xmlns:xlink="http://www.w3.org/1999/xlink" width="1600" height="1600" xml:space="preserve">
<g transform="translate(200, 1400) scale(1, -1)">
	<path id="new-window" d="M750 1200h400q21 0 35.5 -14.5t14.5 -35.5v-400q0 -21 -10.5 -25t-24.5 10l-109 109l-312 -312q-15 -15 -35.5 -15t-35.5 15l-141 141q-15 15 -15 35.5t15 35.5l312 312l-109 109q-14 14 -10 24.5t25 10.5zM456 900h-156q-41 0 -70.5 -29.5t-29.5 -70.5v-500 q0 -41 29.5 -70.5t70.5 -29.5h500q41 0 70.5 29.5t29.5 70.5v148l200 200v-298q0 -165 -93.5 -257.5t-256.5 -92.5h-400q-165 0 -257.5 92.5t-92.5 257.5v400q0 165 92.5 257.5t257.5 92.5h300z" />
</g>
</svg>	
