<?xml version="1.0" encoding="ISO-8859-1"?>
<!-- Converted from Font Awesome. Glyph: e203 -->
<!DOCTYPE svg PUBLIC "-//W3C//DTD SVG 1.1//EN" "http://www.w3.org/Graphics/SVG/1.1/DTD/svg11.dtd">
<svg version="1.1" xmlns="http://www.w3.org/2000/svg" xmlns:xlink="http://www.w3.org/1999/xlink" width="1600" height="1600" xml:space="preserve">
<g transform="translate(200, 1400) scale(1, -1)">
	<path id="open-file" d="M700 800h300v-520l-350 350l-550 -550v1095q0 10 7.5 17.5t17.5 7.5h575v-400zM1000 900h-200v200zM862 200h-162v-200h-100v200h-162l212 212zM480 0h-355q-10 0 -17.5 7.5t-7.5 17.5v55h380v-80zM1000 80v-55q0 -10 -7.5 -17.5t-17.5 -7.5h-155v80h180z" />
</g>
</svg>	
