<?xml version="1.0" encoding="ISO-8859-1"?>
<!-- Converted from Font Awesome. Glyph: e238 -->
<!DOCTYPE svg PUBLIC "-//W3C//DTD SVG 1.1//EN" "http://www.w3.org/Graphics/SVG/1.1/DTD/svg11.dtd">
<svg version="1.1" xmlns="http://www.w3.org/2000/svg" xmlns:xlink="http://www.w3.org/1999/xlink" width="1600" height="1600" xml:space="preserve">
<g transform="translate(200, 1400) scale(1, -1)">
	<path id="oil" d="M150 1100h1000q21 0 35.5 -14.5t14.5 -35.5t-14.5 -35.5t-35.5 -14.5h-50v-200h50q21 0 35.5 -14.5t14.5 -35.5t-14.5 -35.5t-35.5 -14.5h-50v-200h50q21 0 35.5 -14.5t14.5 -35.5t-14.5 -35.5t-35.5 -14.5h-50v-200h50q21 0 35.5 -14.5t14.5 -35.5t-14.5 -35.5 t-35.5 -14.5h-1000q-21 0 -35.5 14.5t-14.5 35.5t14.5 35.5t35.5 14.5h50v200h-50q-21 0 -35.5 14.5t-14.5 35.5t14.5 35.5t35.5 14.5h50v200h-50q-21 0 -35.5 14.5t-14.5 35.5t14.5 35.5t35.5 14.5h50v200h-50q-21 0 -35.5 14.5t-14.5 35.5t14.5 35.5t35.5 14.5z" />
</g>
</svg>	
