<?xml version="1.0" encoding="ISO-8859-1"?>
<!-- Converted from Font Awesome. Glyph: e246 -->
<!DOCTYPE svg PUBLIC "-//W3C//DTD SVG 1.1//EN" "http://www.w3.org/Graphics/SVG/1.1/DTD/svg11.dtd">
<svg version="1.1" xmlns="http://www.w3.org/2000/svg" xmlns:xlink="http://www.w3.org/1999/xlink" width="1600" height="1600" xml:space="preserve">
<g transform="translate(200, 1400) scale(1, -1)">
	<path id="object-align-horizontal" d="M50 1000h400q21 0 35.5 -14.5t14.5 -35.5v-350h100v150q0 21 14.5 35.5t35.5 14.5h400q21 0 35.5 -14.5t14.5 -35.5v-150h100v-100h-100v-150q0 -21 -14.5 -35.5t-35.5 -14.5h-400q-21 0 -35.5 14.5t-14.5 35.5v150h-100v-350q0 -21 -14.5 -35.5t-35.5 -14.5h-400 q-21 0 -35.5 14.5t-14.5 35.5v800q0 21 14.5 35.5t35.5 14.5zM700 700v-300h300v300h-300z" />
</g>
</svg>	
