<?xml version="1.0" encoding="ISO-8859-1"?>
<!-- Converted from Font Awesome. Glyph: e235 -->
<!DOCTYPE svg PUBLIC "-//W3C//DTD SVG 1.1//EN" "http://www.w3.org/Graphics/SVG/1.1/DTD/svg11.dtd">
<svg version="1.1" xmlns="http://www.w3.org/2000/svg" xmlns:xlink="http://www.w3.org/1999/xlink" width="1600" height="1600" xml:space="preserve">
<g transform="translate(200, 1400) scale(1, -1)">
	<path id="option-vertical" d="M550 1100q62 0 106 -44t44 -106t-44 -106t-106 -44t-106 44t-44 106t44 106t106 44zM550 700q62 0 106 -44t44 -106t-44 -106t-106 -44t-106 44t-44 106t44 106t106 44zM550 300q62 0 106 -44t44 -106t-44 -106t-106 -44t-106 44t-44 106t44 106t106 44z" />
</g>
</svg>	
