<?xml version="1.0" encoding="ISO-8859-1"?>
<!-- Converted from Font Awesome. Glyph: e167 -->
<!DOCTYPE svg PUBLIC "-//W3C//DTD SVG 1.1//EN" "http://www.w3.org/Graphics/SVG/1.1/DTD/svg11.dtd">
<svg version="1.1" xmlns="http://www.w3.org/2000/svg" xmlns:xlink="http://www.w3.org/1999/xlink" width="1600" height="1600" xml:space="preserve">
<g transform="translate(200, 1400) scale(1, -1)">
	<path id="open" d="M583 1182l378 -435q14 -15 9 -31t-26 -16h-244v-250q0 -20 -17 -35t-39 -15h-200q-20 0 -32 14.5t-12 35.5v250h-250q-20 0 -25.5 16.5t8.5 31.5l383 431q14 16 33.5 17t33.5 -14zM50 300h1000q21 0 35.5 -14.5t14.5 -35.5v-250h-1100v250q0 21 14.5 35.5t35.5 14.5z M900 200v-50h100v50h-100z" />
</g>
</svg>	
