<?xml version="1.0" encoding="ISO-8859-1"?>
<!-- Converted from Font Awesome. Glyph: e017 -->
<!DOCTYPE svg PUBLIC "-//W3C//DTD SVG 1.1//EN" "http://www.w3.org/Graphics/SVG/1.1/DTD/svg11.dtd">
<svg version="1.1" xmlns="http://www.w3.org/2000/svg" xmlns:xlink="http://www.w3.org/1999/xlink" width="1600" height="1600" xml:space="preserve">
<g transform="translate(200, 1400) scale(1, -1)">
	<path id="off" d="M550 1200h100q21 0 35.5 -14.5t14.5 -35.5v-400q0 -21 -14.5 -35.5t-35.5 -14.5h-100q-21 0 -35.5 14.5t-14.5 35.5v400q0 21 14.5 35.5t35.5 14.5zM800 975v166q167 -62 272 -209.5t105 -331.5q0 -117 -45.5 -224t-123 -184.5t-184.5 -123t-224 -45.5t-224 45.5 t-184.5 123t-123 184.5t-45.5 224q0 184 105 331.5t272 209.5v-166q-103 -55 -165 -155t-62 -220q0 -116 57 -214.5t155.5 -155.5t214.5 -57t214.5 57t155.5 155.5t57 214.5q0 120 -62 220t-165 155z" />
</g>
</svg>	
