<?xml version="1.0" encoding="ISO-8859-1"?>
<!-- Converted from Font Awesome. Glyph: e142 -->
<!DOCTYPE svg PUBLIC "-//W3C//DTD SVG 1.1//EN" "http://www.w3.org/Graphics/SVG/1.1/DTD/svg11.dtd">
<svg version="1.1" xmlns="http://www.w3.org/2000/svg" xmlns:xlink="http://www.w3.org/1999/xlink" width="1600" height="1600" xml:space="preserve">
<g transform="translate(200, 1400) scale(1, -1)">
	<path id="paperclip" d="M546 173l469 470q91 91 99 192q7 98 -52 175.5t-154 94.5q-22 4 -47 4q-34 0 -66.5 -10t-56.5 -23t-55.5 -38t-48 -41.5t-48.5 -47.5q-376 -375 -391 -390q-30 -27 -45 -41.5t-37.5 -41t-32 -46.5t-16 -47.5t-1.5 -56.5q9 -62 53.5 -95t99.5 -33q74 0 125 51l548 548 q36 36 20 75q-7 16 -21.5 26t-32.5 10q-26 0 -50 -23q-13 -12 -39 -38l-341 -338q-15 -15 -35.5 -15.5t-34.5 13.5t-14 34.5t14 34.5q327 333 361 367q35 35 67.5 51.5t78.5 16.5q14 0 29 -1q44 -8 74.5 -35.5t43.5 -68.5q14 -47 2 -96.5t-47 -84.5q-12 -11 -32 -32 t-79.5 -81t-114.5 -115t-124.5 -123.5t-123 -119.5t-96.5 -89t-57 -45q-56 -27 -120 -27q-70 0 -129 32t-93 89q-48 78 -35 173t81 163l511 511q71 72 111 96q91 55 198 55q80 0 152 -33q78 -36 129.5 -103t66.5 -154q17 -93 -11 -183.5t-94 -156.5l-482 -476 q-15 -15 -36 -16t-37 14t-17.5 34t14.5 35z" />
</g>
</svg>	
