<?xml version="1.0" encoding="ISO-8859-1"?>
<!-- Converted from Font Awesome. Glyph: e206 -->
<!DOCTYPE svg PUBLIC "-//W3C//DTD SVG 1.1//EN" "http://www.w3.org/Graphics/SVG/1.1/DTD/svg11.dtd">
<svg version="1.1" xmlns="http://www.w3.org/2000/svg" xmlns:xlink="http://www.w3.org/1999/xlink" width="1600" height="1600" xml:space="preserve">
<g transform="translate(200, 1400) scale(1, -1)">
	<path id="paste" d="M450 1100h100q21 0 35.5 -14.5t14.5 -35.5v-50h50q21 0 35.5 -14.5t14.5 -35.5v-100q0 -21 -14.5 -35.5t-35.5 -14.5h-300q-21 0 -35.5 14.5t-14.5 35.5v100q0 21 14.5 35.5t35.5 14.5h50v50q0 21 14.5 35.5t35.5 14.5zM800 850v150q41 0 70.5 -29.5t29.5 -70.5v-500 h-200v-300h200q0 -36 -7 -57.5t-23.5 -30t-29.5 -10.5t-40 -2h-600q-41 0 -70.5 29.5t-29.5 70.5v800q0 41 29.5 70.5t70.5 29.5v-150q0 -62 44 -106t106 -44h300q62 0 106 44t44 106zM1212 250l-212 -212v162h-200v100h200v162z" />
</g>
</svg>	
