<?xml version="1.0" encoding="ISO-8859-1"?>
<!-- Converted from Font Awesome. Glyph: e108 -->
<!DOCTYPE svg PUBLIC "-//W3C//DTD SVG 1.1//EN" "http://www.w3.org/Graphics/SVG/1.1/DTD/svg11.dtd">
<svg version="1.1" xmlns="http://www.w3.org/2000/svg" xmlns:xlink="http://www.w3.org/1999/xlink" width="1600" height="1600" xml:space="preserve">
<g transform="translate(200, 1400) scale(1, -1)">
	<path id="plane" d="M650 1200q62 0 106 -44t44 -106v-339l363 -325q15 -14 26 -38.5t11 -44.5v-41q0 -20 -12 -26.5t-29 5.5l-359 249v-263q100 -93 100 -113v-64q0 -21 -13 -29t-32 1l-205 128l-205 -128q-19 -9 -32 -1t-13 29v64q0 20 100 113v263l-359 -249q-17 -12 -29 -5.5t-12 26.5v41 q0 20 11 44.5t26 38.5l363 325v339q0 62 44 106t106 44z" />
</g>
</svg>	
