<?xml version="1.0" encoding="ISO-8859-1"?>
<!-- Converted from Font Awesome. Glyph: e045 -->
<!DOCTYPE svg PUBLIC "-//W3C//DTD SVG 1.1//EN" "http://www.w3.org/Graphics/SVG/1.1/DTD/svg11.dtd">
<svg version="1.1" xmlns="http://www.w3.org/2000/svg" xmlns:xlink="http://www.w3.org/1999/xlink" width="1600" height="1600" xml:space="preserve">
<g transform="translate(200, 1400) scale(1, -1)">
	<path id="print" d="M822 1200h-444q-11 0 -19 -7.5t-9 -17.5l-78 -301q-7 -24 7 -45l57 -108q6 -9 17.5 -15t21.5 -6h450q10 0 21.5 6t17.5 15l62 108q14 21 7 45l-83 301q-1 10 -9 17.5t-19 7.5zM1175 800h-150q-10 0 -21 -6.5t-15 -15.5l-78 -156q-4 -9 -15 -15.5t-21 -6.5h-550 q-10 0 -21 6.5t-15 15.5l-78 156q-4 9 -15 15.5t-21 6.5h-150q-10 0 -17.5 -7.5t-7.5 -17.5v-650q0 -10 7.5 -17.5t17.5 -7.5h150q10 0 17.5 7.5t7.5 17.5v150q0 10 7.5 17.5t17.5 7.5h750q10 0 17.5 -7.5t7.5 -17.5v-150q0 -10 7.5 -17.5t17.5 -7.5h150q10 0 17.5 7.5 t7.5 17.5v650q0 10 -7.5 17.5t-17.5 7.5zM850 200h-500q-10 0 -19.5 -7t-11.5 -17l-38 -152q-2 -10 3.5 -17t15.5 -7h600q10 0 15.5 7t3.5 17l-38 152q-2 10 -11.5 17t-19.5 7z" />
</g>
</svg>	
