<?xml version="1.0" encoding="ISO-8859-1"?>
<!-- Converted from Font Awesome. Glyph: e212 -->
<!DOCTYPE svg PUBLIC "-//W3C//DTD SVG 1.1//EN" "http://www.w3.org/Graphics/SVG/1.1/DTD/svg11.dtd">
<svg version="1.1" xmlns="http://www.w3.org/2000/svg" xmlns:xlink="http://www.w3.org/1999/xlink" width="1600" height="1600" xml:space="preserve">
<g transform="translate(200, 1400) scale(1, -1)">
	<path id="queen" d="M600 1300q40 0 68.5 -29.5t28.5 -70.5h-194q0 41 28.5 70.5t68.5 29.5zM443 1100h314q18 -37 18 -75q0 -8 -3 -25h328q41 0 44.5 -16.5t-30.5 -38.5l-175 -145h-678l-178 145q-34 22 -29 38.5t46 16.5h328q-3 17 -3 25q0 38 18 75zM250 700h700q21 0 35.5 -14.5 t14.5 -35.5t-14.5 -35.5t-35.5 -14.5h-150v-200l275 -200h-950l275 200v200h-150q-21 0 -35.5 14.5t-14.5 35.5t14.5 35.5t35.5 14.5zM50 100h1100q21 0 35.5 -14.5t14.5 -35.5v-50h-1200v50q0 21 14.5 35.5t35.5 14.5z" />
</g>
</svg>	
