<?xml version="1.0" encoding="ISO-8859-1"?>
<!-- Converted from Font Awesome. Glyph: e195 -->
<!DOCTYPE svg PUBLIC "-//W3C//DTD SVG 1.1//EN" "http://www.w3.org/Graphics/SVG/1.1/DTD/svg11.dtd">
<svg version="1.1" xmlns="http://www.w3.org/2000/svg" xmlns:xlink="http://www.w3.org/1999/xlink" width="1600" height="1600" xml:space="preserve">
<g transform="translate(200, 1400) scale(1, -1)">
	<path id="registration-mark" d="M600 1191q120 0 229.5 -47t188.5 -126t126 -188.5t47 -229.5t-47 -229.5t-126 -188.5t-188.5 -126t-229.5 -47t-229.5 47t-188.5 126t-126 188.5t-47 229.5t47 229.5t126 188.5t188.5 126t229.5 47zM600 1021q-114 0 -211 -56.5t-153.5 -153.5t-56.5 -211t56.5 -211 t153.5 -153.5t211 -56.5t211 56.5t153.5 153.5t56.5 211t-56.5 211t-153.5 153.5t-211 56.5zM800 700v-100l-50 -50l100 -100v-50h-100l-100 100h-150v-100h-100v400h300zM500 700v-100h200v100h-200z" />
</g>
</svg>	
