<?xml version="1.0" encoding="ISO-8859-1"?>
<!-- Converted from Font Awesome. Glyph: e115 -->
<!DOCTYPE svg PUBLIC "-//W3C//DTD SVG 1.1//EN" "http://www.w3.org/Graphics/SVG/1.1/DTD/svg11.dtd">
<svg version="1.1" xmlns="http://www.w3.org/2000/svg" xmlns:xlink="http://www.w3.org/1999/xlink" width="1600" height="1600" xml:space="preserve">
<g transform="translate(200, 1400) scale(1, -1)">
	<path id="retweet" d="M404 1000h746q21 0 35.5 -14.5t14.5 -35.5v-551h150q21 0 25 -10.5t-10 -24.5l-230 -249q-14 -15 -35 -15t-35 15l-230 249q-14 14 -10 24.5t25 10.5h150v401h-381zM135 984l230 -249q14 -14 10 -24.5t-25 -10.5h-150v-400h385l215 -200h-750q-21 0 -35.5 14.5 t-14.5 35.5v550h-150q-21 0 -25 10.5t10 24.5l230 249q14 15 35 15t35 -15z" />
</g>
</svg>	
