<?xml version="1.0" encoding="ISO-8859-1"?>
<!-- Converted from Font Awesome. Glyph: e083 -->
<!DOCTYPE svg PUBLIC "-//W3C//DTD SVG 1.1//EN" "http://www.w3.org/Graphics/SVG/1.1/DTD/svg11.dtd">
<svg version="1.1" xmlns="http://www.w3.org/2000/svg" xmlns:xlink="http://www.w3.org/1999/xlink" width="1600" height="1600" xml:space="preserve">
<g transform="translate(200, 1400) scale(1, -1)">
	<path id="remove-sign" d="M600 1177q117 0 224 -45.5t184.5 -123t123 -184.5t45.5 -224t-45.5 -224t-123 -184.5t-184.5 -123t-224 -45.5t-224 45.5t-184.5 123t-123 184.5t-45.5 224t45.5 224t123 184.5t184.5 123t224 45.5zM741.5 913q-12.5 0 -21.5 -9l-120 -120l-120 120q-9 9 -21.5 9 t-21.5 -9l-141 -141q-9 -9 -9 -21.5t9 -21.5l120 -120l-120 -120q-9 -9 -9 -21.5t9 -21.5l141 -141q9 -9 21.5 -9t21.5 9l120 120l120 -120q9 -9 21.5 -9t21.5 9l141 141q9 9 9 21.5t-9 21.5l-120 120l120 120q9 9 9 21.5t-9 21.5l-141 141q-9 9 -21.5 9z" />
</g>
</svg>	
