<?xml version="1.0" encoding="ISO-8859-1"?>
<!-- Converted from Font Awesome. Glyph: e030 -->
<!DOCTYPE svg PUBLIC "-//W3C//DTD SVG 1.1//EN" "http://www.w3.org/Graphics/SVG/1.1/DTD/svg11.dtd">
<svg version="1.1" xmlns="http://www.w3.org/2000/svg" xmlns:xlink="http://www.w3.org/1999/xlink" width="1600" height="1600" xml:space="preserve">
<g transform="translate(200, 1400) scale(1, -1)">
	<path id="repeat" d="M947 1060l135 135q7 7 12.5 5t5.5 -13v-362q0 -10 -7.5 -17.5t-17.5 -7.5h-362q-11 0 -13 5.5t5 12.5l133 133q-109 76 -238 76q-116 0 -214.5 -57t-155.5 -155.5t-57 -214.5t57 -214.5t155.5 -155.5t214.5 -57t214.5 57t155.5 155.5t57 214.5h150q0 -117 -45.5 -224 t-123 -184.5t-184.5 -123t-224 -45.5t-224 45.5t-184.5 123t-123 184.5t-45.5 224t45.5 224t123 184.5t184.5 123t224 45.5q192 0 347 -117z" />
</g>
</svg>	
