<?xml version="1.0" encoding="ISO-8859-1"?>
<!-- Converted from Font Awesome. Glyph: 20bd -->
<!DOCTYPE svg PUBLIC "-//W3C//DTD SVG 1.1//EN" "http://www.w3.org/Graphics/SVG/1.1/DTD/svg11.dtd">
<svg version="1.1" xmlns="http://www.w3.org/2000/svg" xmlns:xlink="http://www.w3.org/1999/xlink" width="1600" height="1600" xml:space="preserve">
<g transform="translate(200, 1400) scale(1, -1)">
	<path id="ruble" d="M428 1200h350q67 0 120 -13t86 -31t57 -49.5t35 -56.5t17 -64.5t6.5 -60.5t0.5 -57v-16.5v-16.5q0 -36 -0.5 -57t-6.5 -61t-17 -65t-35 -57t-57 -50.5t-86 -31.5t-120 -13h-178l-2 -100h288q10 0 13 -6t-3 -14l-120 -160q-6 -8 -18 -14t-22 -6h-138v-175q0 -11 -5.5 -18 t-15.5 -7h-149q-10 0 -17.5 7.5t-7.5 17.5v175h-267q-10 0 -13 6t3 14l120 160q6 8 18 14t22 6h117v100h-267q-10 0 -13 6t3 14l120 160q6 8 18 14t22 6h117v475q0 10 7.5 17.5t17.5 7.5zM600 1000v-300h203q64 0 86.5 33t22.5 119q0 84 -22.5 116t-86.5 32h-203z" />
</g>
</svg>	
