<?xml version="1.0" encoding="ISO-8859-1"?>
<!-- Converted from Font Awesome. Glyph: e014 -->
<!DOCTYPE svg PUBLIC "-//W3C//DTD SVG 1.1//EN" "http://www.w3.org/Graphics/SVG/1.1/DTD/svg11.dtd">
<svg version="1.1" xmlns="http://www.w3.org/2000/svg" xmlns:xlink="http://www.w3.org/1999/xlink" width="1600" height="1600" xml:space="preserve">
<g transform="translate(200, 1400) scale(1, -1)">
	<path id="remove" d="M904 1083l178 -179q8 -8 8 -18.5t-8 -17.5l-267 -268l267 -268q8 -7 8 -17.5t-8 -18.5l-178 -178q-8 -8 -18.5 -8t-17.5 8l-268 267l-268 -267q-7 -8 -17.5 -8t-18.5 8l-178 178q-8 8 -8 18.5t8 17.5l267 268l-267 268q-8 7 -8 17.5t8 18.5l178 178q8 8 18.5 8t17.5 -8 l268 -267l268 268q7 7 17.5 7t18.5 -7z" />
</g>
</svg>	
