<?xml version="1.0" encoding="ISO-8859-1"?>
<!-- Converted from Font Awesome. Glyph: e031 -->
<!DOCTYPE svg PUBLIC "-//W3C//DTD SVG 1.1//EN" "http://www.w3.org/Graphics/SVG/1.1/DTD/svg11.dtd">
<svg version="1.1" xmlns="http://www.w3.org/2000/svg" xmlns:xlink="http://www.w3.org/1999/xlink" width="1600" height="1600" xml:space="preserve">
<g transform="translate(200, 1400) scale(1, -1)">
	<path id="refresh" d="M947 1060l135 135q7 7 12.5 5t5.5 -13v-361q0 -11 -7.5 -18.5t-18.5 -7.5h-361q-11 0 -13 5.5t5 12.5l134 134q-110 75 -239 75q-116 0 -214.5 -57t-155.5 -155.5t-57 -214.5h-150q0 117 45.5 224t123 184.5t184.5 123t224 45.5q192 0 347 -117zM1027 600h150 q0 -117 -45.5 -224t-123 -184.5t-184.5 -123t-224 -45.5q-192 0 -348 118l-134 -134q-7 -8 -12.5 -5.5t-5.5 12.5v360q0 11 7.5 18.5t18.5 7.5h360q10 0 12.5 -5.5t-5.5 -12.5l-133 -133q110 -76 240 -76q116 0 214.5 57t155.5 155.5t57 214.5z" />
</g>
</svg>	
