<?xml version="1.0" encoding="ISO-8859-1"?>
<!-- Converted from Font Awesome. Glyph: e165 -->
<!DOCTYPE svg PUBLIC "-//W3C//DTD SVG 1.1//EN" "http://www.w3.org/Graphics/SVG/1.1/DTD/svg11.dtd">
<svg version="1.1" xmlns="http://www.w3.org/2000/svg" xmlns:xlink="http://www.w3.org/1999/xlink" width="1600" height="1600" xml:space="preserve">
<g transform="translate(200, 1400) scale(1, -1)">
	<path id="record" d="M600 1186q119 0 227.5 -46.5t187 -125t125 -187t46.5 -227.5t-46.5 -227.5t-125 -187t-187 -125t-227.5 -46.5t-227.5 46.5t-187 125t-125 187t-46.5 227.5t46.5 227.5t125 187t187 125t227.5 46.5zM600 1022q-115 0 -212 -56.5t-153.5 -153.5t-56.5 -212t56.5 -212 t153.5 -153.5t212 -56.5t212 56.5t153.5 153.5t56.5 212t-56.5 212t-153.5 153.5t-212 56.5zM600 794q80 0 137 -57t57 -137t-57 -137t-137 -57t-137 57t-57 137t57 137t137 57z" />
</g>
</svg>	
