<?xml version="1.0" encoding="ISO-8859-1"?>
<!-- Converted from Font Awesome. Glyph: e018 -->
<!DOCTYPE svg PUBLIC "-//W3C//DTD SVG 1.1//EN" "http://www.w3.org/Graphics/SVG/1.1/DTD/svg11.dtd">
<svg version="1.1" xmlns="http://www.w3.org/2000/svg" xmlns:xlink="http://www.w3.org/1999/xlink" width="1600" height="1600" xml:space="preserve">
<g transform="translate(200, 1400) scale(1, -1)">
	<path id="signal" d="M1025 1200h150q10 0 17.5 -7.5t7.5 -17.5v-1150q0 -10 -7.5 -17.5t-17.5 -7.5h-150q-10 0 -17.5 7.5t-7.5 17.5v1150q0 10 7.5 17.5t17.5 7.5zM725 800h150q10 0 17.5 -7.5t7.5 -17.5v-750q0 -10 -7.5 -17.5t-17.5 -7.5h-150q-10 0 -17.5 7.5t-7.5 17.5v750 q0 10 7.5 17.5t17.5 7.5zM425 500h150q10 0 17.5 -7.5t7.5 -17.5v-450q0 -10 -7.5 -17.5t-17.5 -7.5h-150q-10 0 -17.5 7.5t-7.5 17.5v450q0 10 7.5 17.5t17.5 7.5zM125 300h150q10 0 17.5 -7.5t7.5 -17.5v-250q0 -10 -7.5 -17.5t-17.5 -7.5h-150q-10 0 -17.5 7.5t-7.5 17.5 v250q0 10 7.5 17.5t17.5 7.5z" />
</g>
</svg>	
