<?xml version="1.0" encoding="ISO-8859-1"?>
<!-- Converted from Font Awesome. Glyph: e116 -->
<!DOCTYPE svg PUBLIC "-//W3C//DTD SVG 1.1//EN" "http://www.w3.org/Graphics/SVG/1.1/DTD/svg11.dtd">
<svg version="1.1" xmlns="http://www.w3.org/2000/svg" xmlns:xlink="http://www.w3.org/1999/xlink" width="1600" height="1600" xml:space="preserve">
<g transform="translate(200, 1400) scale(1, -1)">
	<path id="shopping-cart" d="M56 1200h94q17 0 31 -11t18 -27l38 -162h896q24 0 39 -18.5t10 -42.5l-100 -475q-5 -21 -27 -42.5t-55 -21.5h-633l48 -200h535q21 0 35.5 -14.5t14.5 -35.5t-14.5 -35.5t-35.5 -14.5h-50v-50q0 -21 -14.5 -35.5t-35.5 -14.5t-35.5 14.5t-14.5 35.5v50h-300v-50 q0 -21 -14.5 -35.5t-35.5 -14.5t-35.5 14.5t-14.5 35.5v50h-31q-18 0 -32.5 10t-20.5 19l-5 10l-201 961h-54q-20 0 -35 14.5t-15 35.5t15 35.5t35 14.5z" />
</g>
</svg>	
