<?xml version="1.0" encoding="ISO-8859-1"?>
<!-- Converted from Font Awesome. Glyph: e240 -->
<!DOCTYPE svg PUBLIC "-//W3C//DTD SVG 1.1//EN" "http://www.w3.org/Graphics/SVG/1.1/DTD/svg11.dtd">
<svg version="1.1" xmlns="http://www.w3.org/2000/svg" xmlns:xlink="http://www.w3.org/1999/xlink" width="1600" height="1600" xml:space="preserve">
<g transform="translate(200, 1400) scale(1, -1)">
	<path id="sunglasses" d="M745 878l69 19q25 6 45 -12l298 -295q11 -11 15 -26.5t-2 -30.5q-5 -14 -18 -23.5t-28 -9.5h-8q1 0 1 -13q0 -29 -2 -56t-8.5 -62t-20 -63t-33 -53t-51 -39t-72.5 -14h-146q-184 0 -184 288q0 24 10 47q-20 4 -62 4t-63 -4q11 -24 11 -47q0 -288 -184 -288h-142 q-48 0 -84.5 21t-56 51t-32 71.5t-16 75t-3.5 68.5q0 13 2 13h-7q-15 0 -27.5 9.5t-18.5 23.5q-6 15 -2 30.5t15 25.5l298 296q20 18 46 11l76 -19q20 -5 30.5 -22.5t5.5 -37.5t-22.5 -31t-37.5 -5l-51 12l-182 -193h891l-182 193l-44 -12q-20 -5 -37.5 6t-22.5 31t6 37.5 t31 22.5z" />
</g>
</svg>	
