<?xml version="1.0" encoding="ISO-8859-1"?>
<!-- Converted from Font Awesome. Glyph: e191 -->
<!DOCTYPE svg PUBLIC "-//W3C//DTD SVG 1.1//EN" "http://www.w3.org/Graphics/SVG/1.1/DTD/svg11.dtd">
<svg version="1.1" xmlns="http://www.w3.org/2000/svg" xmlns:xlink="http://www.w3.org/1999/xlink" width="1600" height="1600" xml:space="preserve">
<g transform="translate(200, 1400) scale(1, -1)">
	<path id="sound-5-1" d="M200 1100h700q124 0 212 -88t88 -212v-500q0 -124 -88 -212t-212 -88h-700q-124 0 -212 88t-88 212v500q0 124 88 212t212 88zM100 900v-700h900v700h-900zM500 700h-200v-100h200v-300h-300v100h200v100h-200v300h300v-100zM900 300h-100v400h-100v100h200v-500z M700 300h-100v100h100v-100z" />
</g>
</svg>	
