<?xml version="1.0" encoding="ISO-8859-1"?>
<!-- Converted from Font Awesome. Glyph: e087 -->
<!DOCTYPE svg PUBLIC "-//W3C//DTD SVG 1.1//EN" "http://www.w3.org/Graphics/SVG/1.1/DTD/svg11.dtd">
<svg version="1.1" xmlns="http://www.w3.org/2000/svg" xmlns:xlink="http://www.w3.org/1999/xlink" width="1600" height="1600" xml:space="preserve">
<g transform="translate(200, 1400) scale(1, -1)">
	<path id="screenshot" d="M525 1200h150q10 0 17.5 -7.5t7.5 -17.5v-194q103 -27 178.5 -102.5t102.5 -178.5h194q10 0 17.5 -7.5t7.5 -17.5v-150q0 -10 -7.5 -17.5t-17.5 -7.5h-194q-27 -103 -102.5 -178.5t-178.5 -102.5v-194q0 -10 -7.5 -17.5t-17.5 -7.5h-150q-10 0 -17.5 7.5t-7.5 17.5v194 q-103 27 -178.5 102.5t-102.5 178.5h-194q-10 0 -17.5 7.5t-7.5 17.5v150q0 10 7.5 17.5t17.5 7.5h194q27 103 102.5 178.5t178.5 102.5v194q0 10 7.5 17.5t17.5 7.5zM700 893v-168q0 -10 -7.5 -17.5t-17.5 -7.5h-150q-10 0 -17.5 7.5t-7.5 17.5v168q-68 -23 -119 -74 t-74 -119h168q10 0 17.5 -7.5t7.5 -17.5v-150q0 -10 -7.5 -17.5t-17.5 -7.5h-168q23 -68 74 -119t119 -74v168q0 10 7.5 17.5t17.5 7.5h150q10 0 17.5 -7.5t7.5 -17.5v-168q68 23 119 74t74 119h-168q-10 0 -17.5 7.5t-7.5 17.5v150q0 10 7.5 17.5t17.5 7.5h168 q-23 68 -74 119t-119 74z" />
</g>
</svg>	
