<?xml version="1.0" encoding="ISO-8859-1"?>
<!-- Converted from Font Awesome. Glyph: e166 -->
<!DOCTYPE svg PUBLIC "-//W3C//DTD SVG 1.1//EN" "http://www.w3.org/Graphics/SVG/1.1/DTD/svg11.dtd">
<svg version="1.1" xmlns="http://www.w3.org/2000/svg" xmlns:xlink="http://www.w3.org/1999/xlink" width="1600" height="1600" xml:space="preserve">
<g transform="translate(200, 1400) scale(1, -1)">
	<path id="save" d="M450 1200h200q21 0 35.5 -14.5t14.5 -35.5v-350h245q20 0 25 -11t-9 -26l-383 -426q-14 -15 -33.5 -15t-32.5 15l-379 426q-13 15 -8.5 26t25.5 11h250v350q0 21 14.5 35.5t35.5 14.5zM50 300h1000q21 0 35.5 -14.5t14.5 -35.5v-250h-1100v250q0 21 14.5 35.5t35.5 14.5z M900 200v-50h100v50h-100z" />
</g>
</svg>	
