<?xml version="1.0" encoding="ISO-8859-1"?>
<!-- Converted from Font Awesome. Glyph: e185 -->
<!DOCTYPE svg PUBLIC "-//W3C//DTD SVG 1.1//EN" "http://www.w3.org/Graphics/SVG/1.1/DTD/svg11.dtd">
<svg version="1.1" xmlns="http://www.w3.org/2000/svg" xmlns:xlink="http://www.w3.org/1999/xlink" width="1600" height="1600" xml:space="preserve">
<g transform="translate(200, 1400) scale(1, -1)">
	<path id="stats" d="M700 1100h-100q-41 0 -70.5 -29.5t-29.5 -70.5v-1000h300v1000q0 41 -29.5 70.5t-70.5 29.5zM1100 800h-100q-41 0 -70.5 -29.5t-29.5 -70.5v-700h300v700q0 41 -29.5 70.5t-70.5 29.5zM400 0h-300v400q0 41 29.5 70.5t70.5 29.5h100q41 0 70.5 -29.5t29.5 -70.5v-400z " />
</g>
</svg>	
