<?xml version="1.0" encoding="ISO-8859-1"?>
<!-- Converted from Font Awesome. Glyph: e168 -->
<!DOCTYPE svg PUBLIC "-//W3C//DTD SVG 1.1//EN" "http://www.w3.org/Graphics/SVG/1.1/DTD/svg11.dtd">
<svg version="1.1" xmlns="http://www.w3.org/2000/svg" xmlns:xlink="http://www.w3.org/1999/xlink" width="1600" height="1600" xml:space="preserve">
<g transform="translate(200, 1400) scale(1, -1)">
	<path id="saved" d="M396 723l369 369q7 7 17.5 7t17.5 -7l139 -139q7 -8 7 -18.5t-7 -17.5l-525 -525q-7 -8 -17.5 -8t-17.5 8l-292 291q-7 8 -7 18t7 18l139 139q8 7 18.5 7t17.5 -7zM50 300h1000q21 0 35.5 -14.5t14.5 -35.5v-250h-1100v250q0 21 14.5 35.5t35.5 14.5zM900 200v-50h100v50 h-100z" />
</g>
</svg>	
