<?xml version="1.0" encoding="ISO-8859-1"?>
<!-- Converted from Font Awesome. Glyph: e152 -->
<!DOCTYPE svg PUBLIC "-//W3C//DTD SVG 1.1//EN" "http://www.w3.org/Graphics/SVG/1.1/DTD/svg11.dtd">
<svg version="1.1" xmlns="http://www.w3.org/2000/svg" xmlns:xlink="http://www.w3.org/1999/xlink" width="1600" height="1600" xml:space="preserve">
<g transform="translate(200, 1400) scale(1, -1)">
	<path id="sort-by-alphabet-alt" d="M400 300h150q21 0 25 -11t-10 -25l-230 -250q-14 -15 -35 -15t-35 15l-230 250q-14 14 -10 25t25 11h150v900h200v-900zM1000 1050l-200 -250h200v-100h-300v150l200 250h-200v100h300v-150zM1000 0h-100v100h-100v-100h-100v500h300v-500zM801 400v-200h100v200h-100z " />
</g>
</svg>	
