<?xml version="1.0" encoding="ISO-8859-1"?>
<!-- Converted from Font Awesome. Glyph: e003 -->
<!DOCTYPE svg PUBLIC "-//W3C//DTD SVG 1.1//EN" "http://www.w3.org/Graphics/SVG/1.1/DTD/svg11.dtd">
<svg version="1.1" xmlns="http://www.w3.org/2000/svg" xmlns:xlink="http://www.w3.org/1999/xlink" width="1600" height="1600" xml:space="preserve">
<g transform="translate(200, 1400) scale(1, -1)">
	<path id="search" d="M500 1191q100 0 191 -39t156.5 -104.5t104.5 -156.5t39 -191l-1 -2l1 -5q0 -141 -78 -262l275 -274q23 -26 22.5 -44.5t-22.5 -42.5l-59 -58q-26 -20 -46.5 -20t-39.5 20l-275 274q-119 -77 -261 -77l-5 1l-2 -1q-100 0 -191 39t-156.5 104.5t-104.5 156.5t-39 191 t39 191t104.5 156.5t156.5 104.5t191 39zM500 1022q-88 0 -162 -43t-117 -117t-43 -162t43 -162t117 -117t162 -43t162 43t117 117t43 162t-43 162t-117 117t-162 43z" />
</g>
</svg>	
