<?xml version="1.0" encoding="ISO-8859-1"?>
<!-- Converted from Font Awesome. Glyph: e150 -->
<!DOCTYPE svg PUBLIC "-//W3C//DTD SVG 1.1//EN" "http://www.w3.org/Graphics/SVG/1.1/DTD/svg11.dtd">
<svg version="1.1" xmlns="http://www.w3.org/2000/svg" xmlns:xlink="http://www.w3.org/1999/xlink" width="1600" height="1600" xml:space="preserve">
<g transform="translate(200, 1400) scale(1, -1)">
	<path id="sort" d="M400 300h150q21 0 25 -11t-10 -25l-230 -250q-14 -15 -35 -15t-35 15l-230 250q-14 14 -10 25t25 11h150v900h200v-900zM935 1184l230 -249q14 -14 10 -24.5t-25 -10.5h-150v-900h-200v900h-150q-21 0 -25 10.5t10 24.5l230 249q14 15 35 15t35 -15z" />
</g>
</svg>	
