<?xml version="1.0" encoding="ISO-8859-1"?>
<!-- Converted from Font Awesome. Glyph: e051 -->
<!DOCTYPE svg PUBLIC "-//W3C//DTD SVG 1.1//EN" "http://www.w3.org/Graphics/SVG/1.1/DTD/svg11.dtd">
<svg version="1.1" xmlns="http://www.w3.org/2000/svg" xmlns:xlink="http://www.w3.org/1999/xlink" width="1600" height="1600" xml:space="preserve">
<g transform="translate(200, 1400) scale(1, -1)">
	<path id="text-width" d="M1100 900h-50q0 21 -4 37t-9.5 26.5t-18 17.5t-22 11t-28.5 5.5t-31 2t-37 0.5h-200v-650q0 -22 25 -34.5t50 -13.5l25 -2v-100h-400v100q4 0 11 0.5t24 3t30 7t24 15t11 24.5v650h-200q-25 0 -37 -0.5t-31 -2t-28.5 -5.5t-22 -11t-18 -17.5t-9.5 -26.5t-4 -37h-50v300 h1000v-300zM1167 50l-167 -125v75h-800v-75l-167 125l167 125v-75h800v75z" />
</g>
</svg>	
