<?xml version="1.0" encoding="ISO-8859-1"?>
<!-- Converted from Font Awesome. Glyph: e125 -->
<!DOCTYPE svg PUBLIC "-//W3C//DTD SVG 1.1//EN" "http://www.w3.org/Graphics/SVG/1.1/DTD/svg11.dtd">
<svg version="1.1" xmlns="http://www.w3.org/2000/svg" xmlns:xlink="http://www.w3.org/1999/xlink" width="1600" height="1600" xml:space="preserve">
<g transform="translate(200, 1400) scale(1, -1)">
	<path id="thumbs-up" d="M650 1200h50q40 0 70 -40.5t30 -84.5v-150l-28 -125h328q40 0 70 -40.5t30 -84.5v-100q0 -45 -29 -74l-238 -344q-16 -24 -38 -40.5t-45 -16.5h-250q-7 0 -42 25t-66 50l-31 25h-61q-45 0 -72.5 18t-27.5 57v400q0 36 20 63l145 196l96 198q13 28 37.5 48t51.5 20z M650 1100l-100 -212l-150 -213v-375h100l136 -100h214l250 375v125h-450l50 225v175h-50zM50 800h100q21 0 35.5 -14.5t14.5 -35.5v-500q0 -21 -14.5 -35.5t-35.5 -14.5h-100q-21 0 -35.5 14.5t-14.5 35.5v500q0 21 14.5 35.5t35.5 14.5z" />
</g>
</svg>	
