<?xml version="1.0" encoding="ISO-8859-1"?>
<!-- Converted from Font Awesome. Glyph: e126 -->
<!DOCTYPE svg PUBLIC "-//W3C//DTD SVG 1.1//EN" "http://www.w3.org/Graphics/SVG/1.1/DTD/svg11.dtd">
<svg version="1.1" xmlns="http://www.w3.org/2000/svg" xmlns:xlink="http://www.w3.org/1999/xlink" width="1600" height="1600" xml:space="preserve">
<g transform="translate(200, 1400) scale(1, -1)">
	<path id="thumbs-down" d="M600 1100h250q23 0 45 -16.5t38 -40.5l238 -344q29 -29 29 -74v-100q0 -44 -30 -84.5t-70 -40.5h-328q28 -118 28 -125v-150q0 -44 -30 -84.5t-70 -40.5h-50q-27 0 -51.5 20t-37.5 48l-96 198l-145 196q-20 27 -20 63v400q0 39 27.5 57t72.5 18h61q124 100 139 100z M50 1000h100q21 0 35.5 -14.5t14.5 -35.5v-500q0 -21 -14.5 -35.5t-35.5 -14.5h-100q-21 0 -35.5 14.5t-14.5 35.5v500q0 21 14.5 35.5t35.5 14.5zM636 1000l-136 -100h-100v-375l150 -213l100 -212h50v175l-50 225h450v125l-250 375h-214z" />
</g>
</svg>	
