<?xml version="1.0" encoding="ISO-8859-1"?>
<!-- Converted from Font Awesome. Glyph: e020 -->
<!DOCTYPE svg PUBLIC "-//W3C//DTD SVG 1.1//EN" "http://www.w3.org/Graphics/SVG/1.1/DTD/svg11.dtd">
<svg version="1.1" xmlns="http://www.w3.org/2000/svg" xmlns:xlink="http://www.w3.org/1999/xlink" width="1600" height="1600" xml:space="preserve">
<g transform="translate(200, 1400) scale(1, -1)">
	<path id="trash" d="M500 1300h300q41 0 70.5 -29.5t29.5 -70.5v-100h275q10 0 17.5 -7.5t7.5 -17.5v-75h-1100v75q0 10 7.5 17.5t17.5 7.5h275v100q0 41 29.5 70.5t70.5 29.5zM500 1200v-100h300v100h-300zM1100 900v-800q0 -41 -29.5 -70.5t-70.5 -29.5h-700q-41 0 -70.5 29.5t-29.5 70.5 v800h900zM300 800v-700h100v700h-100zM500 800v-700h100v700h-100zM700 800v-700h100v700h-100zM900 800v-700h100v700h-100z" />
</g>
</svg>	
