<?xml version="1.0" encoding="ISO-8859-1"?>
<!-- Converted from Font Awesome. Glyph: e042 -->
<!DOCTYPE svg PUBLIC "-//W3C//DTD SVG 1.1//EN" "http://www.w3.org/Graphics/SVG/1.1/DTD/svg11.dtd">
<svg version="1.1" xmlns="http://www.w3.org/2000/svg" xmlns:xlink="http://www.w3.org/1999/xlink" width="1600" height="1600" xml:space="preserve">
<g transform="translate(200, 1400) scale(1, -1)">
	<path id="tags" d="M500 1200l682 -682q8 -8 8 -18t-8 -18l-464 -464q-8 -8 -18 -8t-18 8l-682 682l1 475q0 10 7.5 17.5t17.5 7.5h474zM800 1200l682 -682q8 -8 8 -18t-8 -18l-464 -464q-8 -8 -18 -8t-18 8l-56 56l424 426l-700 700h150zM319.5 1024.5q-29.5 29.5 -71 29.5t-71 -29.5 t-29.5 -71.5t29.5 -71.5t71 -29.5t71 29.5t29.5 71.5t-29.5 71.5z" />
</g>
</svg>	
