<?xml version="1.0" encoding="ISO-8859-1"?>
<!-- Converted from Font Awesome. Glyph: e178 -->
<!DOCTYPE svg PUBLIC "-//W3C//DTD SVG 1.1//EN" "http://www.w3.org/Graphics/SVG/1.1/DTD/svg11.dtd">
<svg version="1.1" xmlns="http://www.w3.org/2000/svg" xmlns:xlink="http://www.w3.org/1999/xlink" width="1600" height="1600" xml:space="preserve">
<g transform="translate(200, 1400) scale(1, -1)">
	<path id="transfer" d="M935 1165l248 -230q14 -14 14 -35t-14 -35l-248 -230q-14 -14 -24.5 -10t-10.5 25v150h-400v200h400v150q0 21 10.5 25t24.5 -10zM200 800h-50q-21 0 -35.5 14.5t-14.5 35.5v100q0 21 14.5 35.5t35.5 14.5h50v-200zM400 800h-100v200h100v-200zM18 435l247 230 q14 14 24.5 10t10.5 -25v-150h400v-200h-400v-150q0 -21 -10.5 -25t-24.5 10l-247 230q-15 14 -15 35t15 35zM900 300h-100v200h100v-200zM1000 500h51q20 0 34.5 -14.5t14.5 -35.5v-100q0 -21 -14.5 -35.5t-34.5 -14.5h-51v200z" />
</g>
</svg>	
