<?xml version="1.0" encoding="ISO-8859-1"?>
<!-- Converted from Font Awesome. Glyph: e200 -->
<!DOCTYPE svg PUBLIC "-//W3C//DTD SVG 1.1//EN" "http://www.w3.org/Graphics/SVG/1.1/DTD/svg11.dtd">
<svg version="1.1" xmlns="http://www.w3.org/2000/svg" xmlns:xlink="http://www.w3.org/1999/xlink" width="1600" height="1600" xml:space="preserve">
<g transform="translate(200, 1400) scale(1, -1)">
	<path id="tree-deciduous" d="M600 1179q94 0 167.5 -56.5t99.5 -145.5q89 -6 150.5 -71.5t61.5 -155.5q0 -61 -29.5 -112.5t-79.5 -82.5q9 -29 9 -55q0 -74 -52.5 -126.5t-126.5 -52.5q-55 0 -100 30v-251q21 0 35.5 -14.5t14.5 -35.5v-50h-300v50q0 21 14.5 35.5t35.5 14.5v251q-45 -30 -100 -30 q-74 0 -126.5 52.5t-52.5 126.5q0 18 4 38q-47 21 -75.5 65t-28.5 97q0 74 52.5 126.5t126.5 52.5q5 0 23 -2q0 2 -1 10t-1 13q0 116 81.5 197.5t197.5 81.5z" />
</g>
</svg>	
