<?xml version="1.0" encoding="ISO-8859-1"?>
<!-- Converted from Font Awesome. Glyph: e012 -->
<!DOCTYPE svg PUBLIC "-//W3C//DTD SVG 1.1//EN" "http://www.w3.org/Graphics/SVG/1.1/DTD/svg11.dtd">
<svg version="1.1" xmlns="http://www.w3.org/2000/svg" xmlns:xlink="http://www.w3.org/1999/xlink" width="1600" height="1600" xml:space="preserve">
<g transform="translate(200, 1400) scale(1, -1)">
	<path id="th-list" d="M50 1100h200q21 0 35.5 -14.5t14.5 -35.5v-200q0 -21 -14.5 -35.5t-35.5 -14.5h-200q-21 0 -35.5 14.5t-14.5 35.5v200q0 21 14.5 35.5t35.5 14.5zM450 1100h700q21 0 35.5 -14.5t14.5 -35.5v-200q0 -21 -14.5 -35.5t-35.5 -14.5h-700q-21 0 -35.5 14.5t-14.5 35.5v200 q0 21 14.5 35.5t35.5 14.5zM50 700h200q21 0 35.5 -14.5t14.5 -35.5v-200q0 -21 -14.5 -35.5t-35.5 -14.5h-200q-21 0 -35.5 14.5t-14.5 35.5v200q0 21 14.5 35.5t35.5 14.5zM450 700h700q21 0 35.5 -14.5t14.5 -35.5v-200q0 -21 -14.5 -35.5t-35.5 -14.5h-700 q-21 0 -35.5 14.5t-14.5 35.5v200q0 21 14.5 35.5t35.5 14.5zM50 300h200q21 0 35.5 -14.5t14.5 -35.5v-200q0 -21 -14.5 -35.5t-35.5 -14.5h-200q-21 0 -35.5 14.5t-14.5 35.5v200q0 21 14.5 35.5t35.5 14.5zM450 300h700q21 0 35.5 -14.5t14.5 -35.5v-200 q0 -21 -14.5 -35.5t-35.5 -14.5h-700q-21 0 -35.5 14.5t-14.5 35.5v200q0 21 14.5 35.5t35.5 14.5z" />
</g>
</svg>	
