<?xml version="1.0" encoding="ISO-8859-1"?>
<!-- Converted from Font Awesome. Glyph: e064 -->
<!DOCTYPE svg PUBLIC "-//W3C//DTD SVG 1.1//EN" "http://www.w3.org/Graphics/SVG/1.1/DTD/svg11.dtd">
<svg version="1.1" xmlns="http://www.w3.org/2000/svg" xmlns:xlink="http://www.w3.org/1999/xlink" width="1600" height="1600" xml:space="preserve">
<g transform="translate(200, 1400) scale(1, -1)">
	<path id="tint" d="M554 1295q21 -72 57.5 -143.5t76 -130t83 -118t82.5 -117t70 -116t49.5 -126t18.5 -136.5q0 -71 -25.5 -135t-68.5 -111t-99 -82t-118.5 -54t-125.5 -23q-84 5 -161.5 34t-139.5 78.5t-99 125t-37 164.5q0 69 18 136.5t49.5 126.5t69.5 116.5t81.5 117.5t83.5 119 t76.5 131t58.5 143zM344 710q-23 -33 -43.5 -70.5t-40.5 -102.5t-17 -123q1 -37 14.5 -69.5t30 -52t41 -37t38.5 -24.5t33 -15q21 -7 32 -1t13 22l6 34q2 10 -2.5 22t-13.5 19q-5 4 -14 12t-29.5 40.5t-32.5 73.5q-26 89 6 271q2 11 -6 11q-8 1 -15 -10z" />
</g>
</svg>	
