<?xml version="1.0" encoding="ISO-8859-1"?>
<!-- Converted from Font Awesome. Glyph: e148 -->
<!DOCTYPE svg PUBLIC "-//W3C//DTD SVG 1.1//EN" "http://www.w3.org/Graphics/SVG/1.1/DTD/svg11.dtd">
<svg version="1.1" xmlns="http://www.w3.org/2000/svg" xmlns:xlink="http://www.w3.org/1999/xlink" width="1600" height="1600" xml:space="preserve">
<g transform="translate(200, 1400) scale(1, -1)">
	<path id="usd" d="M700 1248v-78q38 -5 72.5 -14.5t75.5 -31.5t71 -53.5t52 -84t24 -118.5h-159q-4 36 -10.5 59t-21 45t-40 35.5t-64.5 20.5v-307l64 -13q34 -7 64 -16.5t70 -32t67.5 -52.5t47.5 -80t20 -112q0 -139 -89 -224t-244 -97v-77h-100v79q-150 16 -237 103q-40 40 -52.5 93.5 t-15.5 139.5h139q5 -77 48.5 -126t117.5 -65v335l-27 8q-46 14 -79 26.5t-72 36t-63 52t-40 72.5t-16 98q0 70 25 126t67.5 92t94.5 57t110 27v77h100zM600 754v274q-29 -4 -50 -11t-42 -21.5t-31.5 -41.5t-10.5 -65q0 -29 7 -50.5t16.5 -34t28.5 -22.5t31.5 -14t37.5 -10 q9 -3 13 -4zM700 547v-310q22 2 42.5 6.5t45 15.5t41.5 27t29 42t12 59.5t-12.5 59.5t-38 44.5t-53 31t-66.5 24.5z" />
</g>
</svg>	
