<?xml version="1.0" encoding="ISO-8859-1"?>
<!-- Converted from Font Awesome. Glyph: e008 -->
<!DOCTYPE svg PUBLIC "-//W3C//DTD SVG 1.1//EN" "http://www.w3.org/Graphics/SVG/1.1/DTD/svg11.dtd">
<svg version="1.1" xmlns="http://www.w3.org/2000/svg" xmlns:xlink="http://www.w3.org/1999/xlink" width="1600" height="1600" xml:space="preserve">
<g transform="translate(200, 1400) scale(1, -1)">
	<path id="user" d="M600 1200q124 0 212 -88t88 -212v-250q0 -46 -31 -98t-69 -52v-75q0 -10 6 -21.5t15 -17.5l358 -230q9 -5 15 -16.5t6 -21.5v-93q0 -10 -7.5 -17.5t-17.5 -7.5h-1150q-10 0 -17.5 7.5t-7.5 17.5v93q0 10 6 21.5t15 16.5l358 230q9 6 15 17.5t6 21.5v75q-38 0 -69 52 t-31 98v250q0 124 88 212t212 88z" />
</g>
</svg>	
