<?xml version="1.0" encoding="ISO-8859-1"?>
<!-- Converted from Font Awesome. Glyph: e036 -->
<!DOCTYPE svg PUBLIC "-//W3C//DTD SVG 1.1//EN" "http://www.w3.org/Graphics/SVG/1.1/DTD/svg11.dtd">
<svg version="1.1" xmlns="http://www.w3.org/2000/svg" xmlns:xlink="http://www.w3.org/1999/xlink" width="1600" height="1600" xml:space="preserve">
<g transform="translate(200, 1400) scale(1, -1)">
	<path id="volume-off" d="M321 814l258 172q9 6 15 2.5t6 -13.5v-750q0 -10 -6 -13.5t-15 2.5l-258 172q-21 14 -46 14h-250q-10 0 -17.5 7.5t-7.5 17.5v350q0 10 7.5 17.5t17.5 7.5h250q25 0 46 14zM900 668l120 120q7 7 17 7t17 -7l34 -34q7 -7 7 -17t-7 -17l-120 -120l120 -120q7 -7 7 -17 t-7 -17l-34 -34q-7 -7 -17 -7t-17 7l-120 119l-120 -119q-7 -7 -17 -7t-17 7l-34 34q-7 7 -7 17t7 17l119 120l-119 120q-7 7 -7 17t7 17l34 34q7 8 17 8t17 -8z" />
</g>
</svg>	
