<?xml version="1.0" encoding="ISO-8859-1"?>
<!-- Converted from Font Awesome. Glyph: e037 -->
<!DOCTYPE svg PUBLIC "-//W3C//DTD SVG 1.1//EN" "http://www.w3.org/Graphics/SVG/1.1/DTD/svg11.dtd">
<svg version="1.1" xmlns="http://www.w3.org/2000/svg" xmlns:xlink="http://www.w3.org/1999/xlink" width="1600" height="1600" xml:space="preserve">
<g transform="translate(200, 1400) scale(1, -1)">
	<path id="volume-down" d="M321 814l258 172q9 6 15 2.5t6 -13.5v-750q0 -10 -6 -13.5t-15 2.5l-258 172q-21 14 -46 14h-250q-10 0 -17.5 7.5t-7.5 17.5v350q0 10 7.5 17.5t17.5 7.5h250q25 0 46 14zM766 900h4q10 -1 16 -10q96 -129 96 -290q0 -154 -90 -281q-6 -9 -17 -10l-3 -1q-9 0 -16 6 l-29 23q-7 7 -8.5 16.5t4.5 17.5q72 103 72 229q0 132 -78 238q-6 8 -4.5 18t9.5 17l29 22q7 5 15 5z" />
</g>
</svg>	
