<?xml version="1.0" encoding="ISO-8859-1"?>
<!-- Converted from Font Awesome. Glyph: e107 -->
<!DOCTYPE svg PUBLIC "-//W3C//DTD SVG 1.1//EN" "http://www.w3.org/Graphics/SVG/1.1/DTD/svg11.dtd">
<svg version="1.1" xmlns="http://www.w3.org/2000/svg" xmlns:xlink="http://www.w3.org/1999/xlink" width="1600" height="1600" xml:space="preserve">
<g transform="translate(200, 1400) scale(1, -1)">
	<path id="warning-sign" d="M-90 100l642 1066q20 31 48 28.5t48 -35.5l642 -1056q21 -32 7.5 -67.5t-50.5 -35.5h-1294q-37 0 -50.5 34t7.5 66zM155 200h345v75q0 10 7.5 17.5t17.5 7.5h150q10 0 17.5 -7.5t7.5 -17.5v-75h345l-445 723zM496 700h208q20 0 32 -14.5t8 -34.5l-58 -252 q-4 -20 -21.5 -34.5t-37.5 -14.5h-54q-20 0 -37.5 14.5t-21.5 34.5l-58 252q-4 20 8 34.5t32 14.5z" />
</g>
</svg>	
