<?xml version="1.0" encoding="ISO-8859-1"?>
<!-- Converted from Font Awesome. Glyph: e016 -->
<!DOCTYPE svg PUBLIC "-//W3C//DTD SVG 1.1//EN" "http://www.w3.org/Graphics/SVG/1.1/DTD/svg11.dtd">
<svg version="1.1" xmlns="http://www.w3.org/2000/svg" xmlns:xlink="http://www.w3.org/1999/xlink" width="1600" height="1600" xml:space="preserve">
<g transform="translate(200, 1400) scale(1, -1)">
	<path id="zoom-out" d="M507 1177q98 0 187.5 -38.5t154.5 -103.5t103.5 -154.5t38.5 -187.5q0 -141 -78 -262l300 -299q8 -8 8 -18.5t-8 -18.5l-109 -108q-7 -8 -17.5 -8t-18.5 8l-300 299q-119 -77 -261 -77q-98 0 -188 38.5t-154.5 103t-103 154.5t-38.5 188t38.5 187.5t103 154.5 t154.5 103.5t188 38.5zM506.5 1023q-89.5 0 -165.5 -44t-120 -120.5t-44 -166t44 -165.5t120 -120t165.5 -44t166 44t120.5 120t44 165.5t-44 166t-120.5 120.5t-166 44zM325 800h350q10 0 17.5 -7.5t7.5 -17.5v-150q0 -10 -7.5 -17.5t-17.5 -7.5h-350q-10 0 -17.5 7.5 t-7.5 17.5v150q0 10 7.5 17.5t17.5 7.5z" />
</g>
</svg>	
